<?xml version="1.0" encoding="UTF-8" standalone="no"?>
<!DOCTYPE svg PUBLIC "-//W3C//DTD SVG 1.1//EN" "http://www.w3.org/Graphics/SVG/1.1/DTD/svg11.dtd">
<!-- Generated by Microsoft Visio, SVG Export senechal_architecture.svg Page-1 -->
<svg xmlns="http://www.w3.org/2000/svg" xmlns:xlink="http://www.w3.org/1999/xlink" xmlns:ev="http://www.w3.org/2001/xml-events"
		xmlns:v="http://schemas.microsoft.com/visio/2003/SVGExtensions/" width="11in" height="8.5in" viewBox="0 0 792 612"
		xml:space="preserve" color-interpolation-filters="sRGB" class="st8">
	<v:documentProperties v:langID="1033" v:viewMarkup="false">
		<v:userDefs>
			<v:ud v:nameU="msvSubprocessMaster" v:prompt="" v:val="VT4(Rectangle)"/>
			<v:ud v:nameU="msvNoAutoConnect" v:val="VT0(1):26"/>
		</v:userDefs>
	</v:documentProperties>

	<style type="text/css">
	<![CDATA[
		.st1 {visibility:visible}
		.st2 {fill:#5b9bd5;fill-opacity:0.22;filter:url(#filter_2);stroke:#5b9bd5;stroke-opacity:0.22}
		.st3 {fill:#5b9bd5;stroke:#c7c8c8;stroke-width:0.25}
		.st4 {fill:#feffff;font-family:Calibri;font-size:0.833336em}
		.st5 {font-size:1em}
		.st6 {fill:#5b9bd5;fill-opacity:0.25;filter:url(#filter_2);stroke:#5b9bd5;stroke-opacity:0.25}
		.st7 {fill:#4f87bb;stroke:#40709c;stroke-width:0.75}
		.st8 {fill:none;fill-rule:evenodd;font-size:12px;overflow:visible;stroke-linecap:square;stroke-miterlimit:3}
	]]>
	</style>

	<defs id="Filters">
		<filter id="filter_2">
			<feGaussianBlur stdDeviation="2"/>
		</filter>
	</defs>
	<g v:mID="0" v:index="1" v:groupContext="foregroundPage">
		<v:userDefs>
			<v:ud v:nameU="msvThemeOrder" v:val="VT0(0):26"/>
		</v:userDefs>
		<title>Page-1</title>
		<v:pageProperties v:drawingScale="1" v:pageScale="1" v:drawingUnits="0" v:shadowOffsetX="9" v:shadowOffsetY="-9"/>
		<g id="shape1-1" v:mID="1" v:groupContext="shape" transform="translate(90,-288)">
			<title>Rectangle</title>
			<desc>Web Client</desc>
			<v:userDefs>
				<v:ud v:nameU="visVersion" v:val="VT0(15):26"/>
			</v:userDefs>
			<v:textBlock v:margins="rect(4,4,4,4)"/>
			<v:textRect cx="54" cy="576" width="108" height="72"/>
			<g id="shadow1-2" v:groupContext="shadow" v:shadowOffsetX="0.345598" v:shadowOffsetY="-1.97279" v:shadowType="1"
					transform="matrix(1,0,0,1,0.345598,1.97279)" class="st1">
				<rect x="0" y="540" width="108" height="72" class="st2"/>
			</g>
			<rect x="0" y="540" width="108" height="72" class="st3"/>
			<text x="31.56" y="579" class="st4" v:langID="1033"><v:paragraph v:horizAlign="1"/><v:tabList/>Web Client</text>		</g>
		<g id="shape2-7" v:mID="2" v:groupContext="shape" transform="translate(288,-288)">
			<title>Rectangle.2</title>
			<desc>NGINX PROXY</desc>
			<v:userDefs>
				<v:ud v:nameU="visVersion" v:val="VT0(15):26"/>
			</v:userDefs>
			<v:textBlock v:margins="rect(4,4,4,4)"/>
			<v:textRect cx="54" cy="576" width="108" height="72"/>
			<g id="shadow2-8" v:groupContext="shadow" v:shadowOffsetX="0.345598" v:shadowOffsetY="-1.97279" v:shadowType="1"
					transform="matrix(1,0,0,1,0.345598,1.97279)" class="st1">
				<rect x="0" y="540" width="108" height="72" class="st2"/>
			</g>
			<rect x="0" y="540" width="108" height="72" class="st3"/>
			<text x="40.54" y="573" class="st4" v:langID="1033"><v:paragraph v:horizAlign="1"/><v:tabList/>NGINX<v:newlineChar/><tspan
						x="40.36" dy="1.2em" class="st5">PROXY</tspan></text>		</g>
		<g id="shape3-14" v:mID="3" v:groupContext="shape" transform="translate(90,-189)">
			<title>Rectangle.3</title>
			<desc>Web Client</desc>
			<v:userDefs>
				<v:ud v:nameU="visVersion" v:val="VT0(15):26"/>
			</v:userDefs>
			<v:textBlock v:margins="rect(4,4,4,4)"/>
			<v:textRect cx="54" cy="576" width="108" height="72"/>
			<g id="shadow3-15" v:groupContext="shadow" v:shadowOffsetX="0.345598" v:shadowOffsetY="-1.97279" v:shadowType="1"
					transform="matrix(1,0,0,1,0.345598,1.97279)" class="st1">
				<rect x="0" y="540" width="108" height="72" class="st2"/>
			</g>
			<rect x="0" y="540" width="108" height="72" class="st3"/>
			<text x="31.56" y="579" class="st4" v:langID="1033"><v:paragraph v:horizAlign="1"/><v:tabList/>Web Client</text>		</g>
		<g id="shape4-20" v:mID="4" v:groupContext="shape" transform="translate(90,-387)">
			<title>Rectangle.4</title>
			<desc>Web Client</desc>
			<v:userDefs>
				<v:ud v:nameU="visVersion" v:val="VT0(15):26"/>
			</v:userDefs>
			<v:textBlock v:margins="rect(4,4,4,4)"/>
			<v:textRect cx="54" cy="576" width="108" height="72"/>
			<g id="shadow4-21" v:groupContext="shadow" v:shadowOffsetX="0.345598" v:shadowOffsetY="-1.97279" v:shadowType="1"
					transform="matrix(1,0,0,1,0.345598,1.97279)" class="st1">
				<rect x="0" y="540" width="108" height="72" class="st2"/>
			</g>
			<rect x="0" y="540" width="108" height="72" class="st3"/>
			<text x="31.56" y="579" class="st4" v:langID="1033"><v:paragraph v:horizAlign="1"/><v:tabList/>Web Client</text>		</g>
		<g id="shape5-26" v:mID="5" v:groupContext="shape" transform="translate(90,-90)">
			<title>Rectangle.5</title>
			<desc>Web Client</desc>
			<v:userDefs>
				<v:ud v:nameU="visVersion" v:val="VT0(15):26"/>
			</v:userDefs>
			<v:textBlock v:margins="rect(4,4,4,4)"/>
			<v:textRect cx="54" cy="576" width="108" height="72"/>
			<g id="shadow5-27" v:groupContext="shadow" v:shadowOffsetX="0.345598" v:shadowOffsetY="-1.97279" v:shadowType="1"
					transform="matrix(1,0,0,1,0.345598,1.97279)" class="st1">
				<rect x="0" y="540" width="108" height="72" class="st2"/>
			</g>
			<rect x="0" y="540" width="108" height="72" class="st3"/>
			<text x="31.56" y="579" class="st4" v:langID="1033"><v:paragraph v:horizAlign="1"/><v:tabList/>Web Client</text>		</g>
		<g id="shape6-32" v:mID="6" v:groupContext="shape" transform="translate(90,-486)">
			<title>Rectangle.6</title>
			<desc>Web Client</desc>
			<v:userDefs>
				<v:ud v:nameU="visVersion" v:val="VT0(15):26"/>
			</v:userDefs>
			<v:textBlock v:margins="rect(4,4,4,4)"/>
			<v:textRect cx="54" cy="576" width="108" height="72"/>
			<g id="shadow6-33" v:groupContext="shadow" v:shadowOffsetX="0.345598" v:shadowOffsetY="-1.97279" v:shadowType="1"
					transform="matrix(1,0,0,1,0.345598,1.97279)" class="st1">
				<rect x="0" y="540" width="108" height="72" class="st2"/>
			</g>
			<rect x="0" y="540" width="108" height="72" class="st3"/>
			<text x="31.56" y="579" class="st4" v:langID="1033"><v:paragraph v:horizAlign="1"/><v:tabList/>Web Client</text>		</g>
		<g id="shape8-38" v:mID="8" v:groupContext="shape" transform="translate(-164.843,699.676) rotate(-132.274)">
			<title>Simple Arrow</title>
			<v:userDefs>
				<v:ud v:nameU="visVersion" v:val="VT0(15):26"/>
				<v:ud v:nameU="ArrowType" v:prompt="" v:val="VT0(2):26"/>
			</v:userDefs>
			<g id="shadow8-39" v:groupContext="shadow" v:shadowOffsetX="0.345598" v:shadowOffsetY="-1.97279" v:shadowType="1"
					transform="matrix(1,0,0,1,-1.69222,-1.07132)" class="st1">
				<path d="M0 612 L12 600 L12 606 L133.79 606 L133.79 612 L133.79 618 L12 618 L12 624 L0 612 Z" class="st6"/>
			</g>
			<path d="M0 612 L12 600 L12 606 L133.79 606 L133.79 612 L133.79 618 L12 618 L12 624 L0 612 Z" class="st7"/>
		</g>
		<g id="shape9-43" v:mID="9" v:groupContext="shape" transform="translate(288,900) rotate(180)">
			<title>Simple Arrow.9</title>
			<v:userDefs>
				<v:ud v:nameU="visVersion" v:val="VT0(15):26"/>
				<v:ud v:nameU="ArrowType" v:prompt="" v:val="VT0(2):26"/>
			</v:userDefs>
			<g id="shadow9-44" v:groupContext="shadow" v:shadowOffsetX="0.345598" v:shadowOffsetY="-1.97279" v:shadowType="1"
					transform="matrix(1,0,0,1,-0.345598,-1.97279)" class="st1">
				<path d="M0 612 L12 600 L12 606 L90 606 L90 612 L90 618 L12 618 L12 624 L0 612 Z" class="st6"/>
			</g>
			<path d="M0 612 L12 600 L12 606 L90 606 L90 612 L90 618 L12 618 L12 624 L0 612 Z" class="st7"/>
		</g>
		<g id="shape10-48" v:mID="10" v:groupContext="shape" transform="translate(740.843,699.676) rotate(132.274)">
			<title>Simple Arrow.10</title>
			<v:userDefs>
				<v:ud v:nameU="visVersion" v:val="VT0(15):26"/>
				<v:ud v:nameU="ArrowType" v:prompt="" v:val="VT0(2):26"/>
			</v:userDefs>
			<g id="shadow10-49" v:groupContext="shadow" v:shadowOffsetX="0.345598" v:shadowOffsetY="-1.97279" v:shadowType="1"
					transform="matrix(1,0,0,1,1.22727,-1.58277)" class="st1">
				<path d="M0 612 L12 600 L12 606 L133.79 606 L133.79 612 L133.79 618 L12 618 L12 624 L0 612 Z" class="st6"/>
			</g>
			<path d="M0 612 L12 600 L12 606 L133.79 606 L133.79 612 L133.79 618 L12 618 L12 624 L0 612 Z" class="st7"/>
		</g>
		<g id="shape11-53" v:mID="11" v:groupContext="shape" transform="translate(845.144,541.247) rotate(114.444)">
			<title>Simple Arrow.11</title>
			<v:userDefs>
				<v:ud v:nameU="visVersion" v:val="VT0(15):26"/>
				<v:ud v:nameU="ArrowType" v:prompt="" v:val="VT0(2):26"/>
			</v:userDefs>
			<g id="shadow11-54" v:groupContext="shadow" v:shadowOffsetX="0.345598" v:shadowOffsetY="-1.97279" v:shadowType="1"
					transform="matrix(1,0,0,1,1.65295,-1.13097)" class="st1">
				<path d="M0 612 L12 600 L12 606 L217.49 606 L217.49 612 L217.49 618 L12 618 L12 624 L0 612 Z" class="st6"/>
			</g>
			<path d="M0 612 L12 600 L12 606 L217.49 606 L217.49 612 L217.49 618 L12 618 L12 624 L0 612 Z" class="st7"/>
		</g>
		<g id="shape12-58" v:mID="12" v:groupContext="shape" transform="translate(-269.144,541.247) rotate(-114.444)">
			<title>Simple Arrow.12</title>
			<v:userDefs>
				<v:ud v:nameU="visVersion" v:val="VT0(15):26"/>
				<v:ud v:nameU="ArrowType" v:prompt="" v:val="VT0(2):26"/>
			</v:userDefs>
			<g id="shadow12-59" v:groupContext="shadow" v:shadowOffsetX="0.345598" v:shadowOffsetY="-1.97279" v:shadowType="1"
					transform="matrix(1,0,0,1,-1.93897,-0.501726)" class="st1">
				<path d="M0 612 L12 600 L12 606 L217.49 606 L217.49 612 L217.49 618 L12 618 L12 624 L0 612 Z" class="st6"/>
			</g>
			<path d="M0 612 L12 600 L12 606 L217.49 606 L217.49 612 L217.49 618 L12 618 L12 624 L0 612 Z" class="st7"/>
		</g>
		<g id="shape13-63" v:mID="13" v:groupContext="shape" transform="translate(459,-522)">
			<title>Rectangle.13</title>
			<desc>IP Camera 1</desc>
			<v:userDefs>
				<v:ud v:nameU="visVersion" v:val="VT0(15):26"/>
			</v:userDefs>
			<v:textBlock v:margins="rect(4,4,4,4)"/>
			<v:textRect cx="54" cy="576" width="108" height="72"/>
			<g id="shadow13-64" v:groupContext="shadow" v:shadowOffsetX="0.345598" v:shadowOffsetY="-1.97279" v:shadowType="1"
					transform="matrix(1,0,0,1,0.345598,1.97279)" class="st1">
				<rect x="0" y="540" width="108" height="72" class="st2"/>
			</g>
			<rect x="0" y="540" width="108" height="72" class="st3"/>
			<text x="29.68" y="579" class="st4" v:langID="1033"><v:paragraph v:horizAlign="1"/><v:tabList/>IP Camera 1</text>		</g>
		<g id="shape14-69" v:mID="14" v:groupContext="shape" transform="translate(585,-522)">
			<title>Rectangle.14</title>
			<desc>IP Camera 2</desc>
			<v:userDefs>
				<v:ud v:nameU="visVersion" v:val="VT0(15):26"/>
			</v:userDefs>
			<v:textBlock v:margins="rect(4,4,4,4)"/>
			<v:textRect cx="54" cy="576" width="108" height="72"/>
			<g id="shadow14-70" v:groupContext="shadow" v:shadowOffsetX="0.345598" v:shadowOffsetY="-1.97279" v:shadowType="1"
					transform="matrix(1,0,0,1,0.345598,1.97279)" class="st1">
				<rect x="0" y="540" width="108" height="72" class="st2"/>
			</g>
			<rect x="0" y="540" width="108" height="72" class="st3"/>
			<text x="29.68" y="579" class="st4" v:langID="1033"><v:paragraph v:horizAlign="1"/><v:tabList/>IP Camera 2</text>		</g>
		<g id="shape15-75" v:mID="15" v:groupContext="shape" transform="translate(1039.89,401.342) rotate(120.579)">
			<title>Simple Arrow.15</title>
			<v:userDefs>
				<v:ud v:nameU="visVersion" v:val="VT0(15):26"/>
				<v:ud v:nameU="ArrowType" v:prompt="" v:val="VT0(2):26"/>
			</v:userDefs>
			<g id="shadow15-76" v:groupContext="shadow" v:shadowOffsetX="0.345598" v:shadowOffsetY="-1.97279" v:shadowType="1"
					transform="matrix(1,0,0,1,1.52261,-1.30115)" class="st1">
				<path d="M0 612 L12 600 L12 606 L229.98 606 L229.98 612 L229.98 618 L12 618 L12 624 L0 612 Z" class="st6"/>
			</g>
			<path d="M0 612 L12 600 L12 606 L229.98 606 L229.98 612 L229.98 618 L12 618 L12 624 L0 612 Z" class="st7"/>
		</g>
		<g id="shape16-80" v:mID="16" v:groupContext="shape" transform="translate(1025.58,564.444) rotate(140.826)">
			<title>Simple Arrow.16</title>
			<v:userDefs>
				<v:ud v:nameU="visVersion" v:val="VT0(15):26"/>
				<v:ud v:nameU="ArrowType" v:prompt="" v:val="VT0(2):26"/>
			</v:userDefs>
			<g id="shadow16-81" v:groupContext="shadow" v:shadowOffsetX="0.345598" v:shadowOffsetY="-1.97279" v:shadowType="1"
					transform="matrix(1,0,0,1,0.978239,-1.74768)" class="st1">
				<path d="M0 612 L12 600 L12 606 L313.45 606 L313.45 612 L313.45 618 L12 618 L12 624 L0 612 Z" class="st6"/>
			</g>
			<path d="M0 612 L12 600 L12 606 L313.45 606 L313.45 612 L313.45 618 L12 618 L12 624 L0 612 Z" class="st7"/>
		</g>
		<g id="shape17-85" v:mID="17" v:groupContext="shape" transform="translate(494.069,-72)">
			<title>Rectangle.17</title>
			<desc>Alarm Server</desc>
			<v:userDefs>
				<v:ud v:nameU="visVersion" v:val="VT0(15):26"/>
			</v:userDefs>
			<v:textBlock v:margins="rect(4,4,4,4)"/>
			<v:textRect cx="54" cy="576" width="108" height="72"/>
			<g id="shadow17-86" v:groupContext="shadow" v:shadowOffsetX="0.345598" v:shadowOffsetY="-1.97279" v:shadowType="1"
					transform="matrix(1,0,0,1,0.345598,1.97279)" class="st1">
				<rect x="0" y="540" width="108" height="72" class="st2"/>
			</g>
			<rect x="0" y="540" width="108" height="72" class="st3"/>
			<text x="27.68" y="579" class="st4" v:langID="1033"><v:paragraph v:horizAlign="1"/><v:tabList/>Alarm Server</text>		</g>
		<g id="shape18-91" v:mID="18" v:groupContext="shape" transform="translate(638.069,-72)">
			<title>Rectangle.18</title>
			<desc>Thermostat Server</desc>
			<v:userDefs>
				<v:ud v:nameU="visVersion" v:val="VT0(15):26"/>
			</v:userDefs>
			<v:textBlock v:margins="rect(4,4,4,4)"/>
			<v:textRect cx="54" cy="576" width="108" height="72"/>
			<g id="shadow18-92" v:groupContext="shadow" v:shadowOffsetX="0.345598" v:shadowOffsetY="-1.97279" v:shadowType="1"
					transform="matrix(1,0,0,1,0.345598,1.97279)" class="st1">
				<rect x="0" y="540" width="108" height="72" class="st2"/>
			</g>
			<rect x="0" y="540" width="108" height="72" class="st3"/>
			<text x="16.23" y="579" class="st4" v:langID="1033"><v:paragraph v:horizAlign="1"/><v:tabList/>Thermostat Server</text>		</g>
		<g id="shape19-97" v:mID="19" v:groupContext="shape" transform="translate(350.069,-72)">
			<title>Rectangle.19</title>
			<desc>Lighting Server</desc>
			<v:userDefs>
				<v:ud v:nameU="visVersion" v:val="VT0(15):26"/>
			</v:userDefs>
			<v:textBlock v:margins="rect(4,4,4,4)"/>
			<v:textRect cx="54" cy="576" width="108" height="72"/>
			<g id="shadow19-98" v:groupContext="shadow" v:shadowOffsetX="0.345598" v:shadowOffsetY="-1.97279" v:shadowType="1"
					transform="matrix(1,0,0,1,0.345598,1.97279)" class="st1">
				<rect x="0" y="540" width="108" height="72" class="st2"/>
			</g>
			<rect x="0" y="540" width="108" height="72" class="st3"/>
			<text x="23.82" y="579" class="st4" v:langID="1033"><v:paragraph v:horizAlign="1"/><v:tabList/>Lighting Server</text>		</g>
		<g id="shape20-103" v:mID="20" v:groupContext="shape" transform="translate(512.69,-288)">
			<title>Rectangle.20</title>
			<desc>RabbitMQ Broker</desc>
			<v:userDefs>
				<v:ud v:nameU="visVersion" v:val="VT0(15):26"/>
			</v:userDefs>
			<v:textBlock v:margins="rect(4,4,4,4)"/>
			<v:textRect cx="54" cy="576" width="108" height="72"/>
			<g id="shadow20-104" v:groupContext="shadow" v:shadowOffsetX="0.345598" v:shadowOffsetY="-1.97279" v:shadowType="1"
					transform="matrix(1,0,0,1,0.345598,1.97279)" class="st1">
				<rect x="0" y="540" width="108" height="72" class="st2"/>
			</g>
			<rect x="0" y="540" width="108" height="72" class="st3"/>
			<text x="33.17" y="573" class="st4" v:langID="1033"><v:paragraph v:horizAlign="1"/><v:tabList/>RabbitMQ<v:newlineChar/><tspan
						x="40.4" dy="1.2em" class="st5">Broker</tspan></text>		</g>
		<g id="shape21-110" v:mID="21" v:groupContext="shape" transform="translate(512.69,900) rotate(180)">
			<title>Simple Arrow.21</title>
			<v:userDefs>
				<v:ud v:nameU="visVersion" v:val="VT0(15):26"/>
				<v:ud v:nameU="ArrowType" v:prompt="" v:val="VT0(2):26"/>
			</v:userDefs>
			<g id="shadow21-111" v:groupContext="shadow" v:shadowOffsetX="0.345598" v:shadowOffsetY="-1.97279" v:shadowType="1"
					transform="matrix(1,0,0,1,-0.345598,-1.97279)" class="st1">
				<path d="M0 612 L12 600 L12 606 L116.69 606 L116.69 612 L116.69 618 L12 618 L12 624 L0 612 Z" class="st6"/>
			</g>
			<path d="M0 612 L12 600 L12 606 L116.69 606 L116.69 612 L116.69 618 L12 618 L12 624 L0 612 Z" class="st7"/>
		</g>
		<g id="shape22-115" v:mID="22" v:groupContext="shape" transform="translate(-1.6526,9.81444) rotate(-41.5248)">
			<title>Simple Arrow.22</title>
			<v:userDefs>
				<v:ud v:nameU="visVersion" v:val="VT0(15):26"/>
				<v:ud v:nameU="ArrowType" v:prompt="" v:val="VT0(2):26"/>
			</v:userDefs>
			<g id="shadow22-116" v:groupContext="shadow" v:shadowOffsetX="0.345598" v:shadowOffsetY="-1.97279" v:shadowType="1"
					transform="matrix(1,0,0,1,-1.04911,1.70608)" class="st1">
				<path d="M0 612 L12 600 L12 606 L217.21 606 L217.21 612 L217.21 618 L12 618 L12 624 L0 612 Z" class="st6"/>
			</g>
			<path d="M0 612 L12 600 L12 606 L217.21 606 L217.21 612 L217.21 618 L12 618 L12 624 L0 612 Z" class="st7"/>
		</g>
		<g id="shape23-120" v:mID="23" v:groupContext="shape" transform="translate(-58.8776,389.516) rotate(-82.6319)">
			<title>Simple Arrow.23</title>
			<v:userDefs>
				<v:ud v:nameU="visVersion" v:val="VT0(15):26"/>
				<v:ud v:nameU="ArrowType" v:prompt="" v:val="VT0(2):26"/>
			</v:userDefs>
			<g id="shadow23-121" v:groupContext="shadow" v:shadowOffsetX="0.345598" v:shadowOffsetY="-1.97279" v:shadowType="1"
					transform="matrix(1,0,0,1,-1.91218,0.595741)" class="st1">
				<path d="M0 612 L12 600 L12 606 L145.2 606 L145.2 612 L145.2 618 L12 618 L12 624 L0 612 Z" class="st6"/>
			</g>
			<path d="M0 612 L12 600 L12 606 L145.2 606 L145.2 612 L145.2 618 L12 618 L12 624 L0 612 Z" class="st7"/>
		</g>
		<g id="shape24-125" v:mID="24" v:groupContext="shape" transform="translate(230.507,869.877) rotate(-131.046)">
			<title>Simple Arrow.24</title>
			<v:userDefs>
				<v:ud v:nameU="visVersion" v:val="VT0(15):26"/>
				<v:ud v:nameU="ArrowType" v:prompt="" v:val="VT0(2):26"/>
			</v:userDefs>
			<g id="shadow24-126" v:groupContext="shadow" v:shadowOffsetX="0.345598" v:shadowOffsetY="-1.97279" v:shadowType="1"
					transform="matrix(1,0,0,1,-1.71479,-1.03481)" class="st1">
				<path d="M0 612 L12 600 L12 606 L190.93 606 L190.93 612 L190.93 618 L12 618 L12 624 L0 612 Z" class="st6"/>
			</g>
			<path d="M0 612 L12 600 L12 606 L190.93 606 L190.93 612 L190.93 618 L12 618 L12 624 L0 612 Z" class="st7"/>
		</g>
	</g>
</svg>
