<?xml version="1.0" encoding="UTF-8" standalone="no"?>
<svg
   xmlns:dc="http://purl.org/dc/elements/1.1/"
   xmlns:cc="http://creativecommons.org/ns#"
   xmlns:rdf="http://www.w3.org/1999/02/22-rdf-syntax-ns#"
   xmlns:svg="http://www.w3.org/2000/svg"
   xmlns="http://www.w3.org/2000/svg"
   xmlns:sodipodi="http://sodipodi.sourceforge.net/DTD/sodipodi-0.dtd"
   xmlns:inkscape="http://www.inkscape.org/namespaces/inkscape"
   version="1.1"
   x="0px"
   y="0px"
   width="90px"
   height="90px"
   viewBox="4.5 -9.0 90.0 121.5"
   enable-background="new 0 0 90 90"
   xml:space="preserve"
   id="svg3237"
   inkscape:version="0.48.5 r10040"
   sodipodi:docname="3dprinter-off.svg"><metadata
     id="metadata3289"><rdf:RDF><cc:Work
         rdf:about=""><dc:format>image/svg+xml</dc:format><dc:type
           rdf:resource="http://purl.org/dc/dcmitype/StillImage" /><dc:title /></cc:Work></rdf:RDF></metadata><defs
     id="defs3287" /><sodipodi:namedview
     pagecolor="#ffffff"
     bordercolor="#666666"
     borderopacity="1"
     objecttolerance="10"
     gridtolerance="10"
     guidetolerance="10"
     inkscape:pageopacity="0"
     inkscape:pageshadow="2"
     inkscape:window-width="1254"
     inkscape:window-height="717"
     id="namedview3285"
     showgrid="false"
     inkscape:zoom="5.2444444"
     inkscape:cx="45.957476"
     inkscape:cy="49.274694"
     inkscape:window-x="189"
     inkscape:window-y="611"
     inkscape:window-maximized="0"
     inkscape:current-layer="svg3237" /><g
     id="Layer_1"
     display="none"><path
       display="inline"
       d="M78.292,6.908h-2.885c-0.705,0-1.328,0.081-1.703,0.516c-0.233,0.271-0.374,0.678-0.374,1.294v6.225   c0,1.604,0.932,1.808,2.077,1.808h2.751h0.134c1.147,0,2.077-0.204,2.077-1.808V8.718C80.369,7.114,79.439,6.908,78.292,6.908z"
       id="path3240" /><polygon
       display="inline"
       points="30.595,22.447 30.595,22.447 30.595,22.447 30.595,22.447 30.595,19.843 30.595,19.843    30.595,19.843 30.595,19.843  "
       id="polygon3242" /><g
       display="inline"
       id="g3244"><path
         d="M82.398,82.986c0,0.922-0.34,0.762-0.758,0.762l0,0c-0.416,0-0.754,0.16-0.754-0.762v-7.658    c0-0.926,0.338-0.842,0.754-0.842l0,0c0.418,0,0.758-0.084,0.758,0.842V82.986z"
         id="path3246" /><path
         d="M9.404,82.986c0,0.922-0.338,0.762-0.755,0.762l0,0c-0.417,0-0.755,0.16-0.755-0.762v-7.658    c0-0.926,0.338-0.842,0.755-0.842l0,0c0.417,0,0.755-0.084,0.755,0.842V82.986z"
         id="path3248" /></g><path
       display="inline"
       d="M82.294,15.86c0,0.924-0.337,0.761-0.754,0.761l0,0c-0.418,0-0.757,0.164-0.757-0.761V8.202   c0-0.923,0.339-0.84,0.757-0.84l0,0c0.417,0,0.754-0.083,0.754,0.84V15.86z"
       id="path3250" /><path
       display="inline"
       d="M7.997,15.86c0,0.924,0.36,0.761,0.803,0.761l0,0c0.444,0,0.803,0.164,0.803-0.761V8.202   c0-0.923-0.359-0.84-0.803-0.84l0,0c-0.443,0-0.803-0.083-0.803,0.84V15.86z"
       id="path3252" /><path
       display="inline"
       d="M80.467,81.369c0,1.275-1.037,2.314-2.313,2.314H12.14c-1.278,0-2.314-1.039-2.314-2.314v-4.494   c0-1.279,1.036-2.314,2.314-2.314h66.014c1.275,0,2.313,1.035,2.313,2.314V81.369z M75.57,77.618c-0.868,0-1.573,0.704-1.573,1.573   c0,0.873,0.705,1.578,1.573,1.578c0.871,0,1.574-0.705,1.574-1.578C77.146,78.322,76.441,77.618,75.57,77.618z M14.855,77.867   c0-0.533-0.431-0.965-0.964-0.965l0,0c-0.533,0-0.964,0.432-0.964,0.965v2.506c0,0.533,0.431,0.965,0.964,0.965l0,0   c0.533,0,0.964-0.432,0.964-0.965V77.867z M17.558,77.867c0-0.533-0.434-0.965-0.965-0.965l0,0c-0.534,0-0.966,0.432-0.966,0.965   v2.506c0,0.533,0.432,0.965,0.966,0.965l0,0c0.531,0,0.965-0.432,0.965-0.965V77.867z"
       id="path3254" /><path
       display="inline"
       d="M15.042,6.789h-2.885c-0.705,0-1.328,0.081-1.703,0.516C10.22,7.576,10.08,7.983,10.08,8.599v6.225   c0,1.604,0.932,1.808,2.077,1.808h2.751h0.134c1.147,0,2.077-0.204,2.077-1.808V8.599C17.119,6.995,16.189,6.789,15.042,6.789z"
       id="path3256" /><rect
       x="21.16"
       y="48.216"
       display="inline"
       width="48.992"
       height="1.609"
       id="rect3258" /><path
       display="inline"
       d="M18.323,9.447h53.768c0.294,0,0.531,0.233,0.531,0.521v-1.43c0-0.678,0.153-1.126,0.411-1.424h-55.66   c0.261,0.298,0.416,0.747,0.416,1.424v1.43C17.789,9.68,18.029,9.447,18.323,9.447z"
       id="path3260" /><path
       display="inline"
       d="M74.908,17.378c-1.262,0-2.286-0.225-2.286-1.99V9.967c0,0.288-0.237,0.521-0.531,0.521H34.063   c0.359,0.471,0.583,1.081,0.583,1.757v3.198h34.937c0.263,0,0.478,0.21,0.478,0.47c0,0.26-0.215,0.47-0.478,0.47H34.635   c-0.06,1.415-1.065,2.542-2.305,2.542h-1.455v1.533h-0.708v-1.533h-1.309c-1.239,0-2.244-1.128-2.304-2.542h-4.917   c-0.263,0-0.477-0.21-0.477-0.47c0-0.26,0.214-0.47,0.477-0.47h4.906v-3.198c0-0.676,0.225-1.286,0.583-1.757h-8.803   c-0.294,0-0.535-0.233-0.535-0.521v5.421c0,1.766-1.036,1.99-2.314,1.99h-3.119v56.31h6.939V53.745H15.79   c-0.619,0-0.61-0.877-0.61-1.96c0-1.084-0.009-1.96,0.61-1.96h3.505v-1.609h-3.729c-0.212,0-0.385-0.172-0.385-0.386   s0.173-0.387,0.385-0.387h3.729V20.32c0-0.656,0.417-1.189,0.932-1.189c0.516,0,0.933,0.533,0.933,1.189v27.124h48.992V20.32   c0-0.656,0.423-1.189,0.935-1.189c0.517,0,0.933,0.533,0.933,1.189v27.124h3.347c0.214,0,0.386,0.173,0.386,0.387   s-0.172,0.386-0.386,0.386H72.02v1.609h3.186c0.615,0,0.547,0.876,0.547,1.96c0,1.083,0.068,1.96-0.547,1.96H72.02v19.942h5.916   v-56.31H74.908z"
       id="path3262" /><rect
       x="21.16"
       y="53.745"
       display="inline"
       width="48.992"
       height="19.942"
       id="rect3264" /></g><g
     id="Layer_2"
     transform="matrix(1.4,0,0,1.4,-11.2502,-11.3536)"><g
       id="g3267"><path
         d="m 75.313,77.354 c -1.024,0 -1.858,0.834 -1.858,1.858 0,1.024 0.834,1.857 1.858,1.857 1.024,0 1.857,-0.833 1.857,-1.857 0,-1.024 -0.832,-1.858 -1.857,-1.858 z m 0,3.139 c -0.707,0 -1.282,-0.575 -1.282,-1.281 0,-0.707 0.575,-1.282 1.282,-1.282 0.706,0 1.281,0.575 1.281,1.282 0.001,0.706 -0.574,1.281 -1.281,1.281 z"
         id="path3269"
         inkscape:connector-curvature="0"
         style="fill:#000000" /><path
         d="m 13.863,76.929 c -0.531,0 -0.961,0.431 -0.961,0.962 v 2.497 c 0,0.531 0.43,0.961 0.961,0.961 0.53,0 0.961,-0.43 0.961,-0.961 v -2.497 c 0,-0.532 -0.43,-0.962 -0.961,-0.962 z"
         id="path3271"
         inkscape:connector-curvature="0"
         style="fill:#000000" /><path
         d="m 16.554,76.929 c -0.531,0 -0.961,0.431 -0.961,0.962 v 2.497 c 0,0.531 0.43,0.961 0.961,0.961 0.53,0 0.96,-0.43 0.96,-0.961 v -2.497 c 0.001,-0.532 -0.43,-0.962 -0.96,-0.962 z"
         id="path3273"
         inkscape:connector-curvature="0"
         style="fill:#000000" /><path
         d="m 81.36,74.415 c -0.415,0 -0.752,-0.083 -0.752,0.838 v 7.629 c 0,0.921 0.337,0.76 0.752,0.76 0.416,0 0.753,0.161 0.753,-0.76 v -7.629 c 0,-0.921 -0.337,-0.838 -0.753,-0.838 z"
         id="path3275"
         inkscape:connector-curvature="0"
         style="fill:#000000" /><path
         d="m 8.64,74.415 c -0.416,0 -0.752,-0.083 -0.752,0.838 v 7.629 c 0,0.921 0.337,0.76 0.752,0.76 0.415,0 0.753,0.161 0.753,-0.76 v -7.629 c 0,-0.921 -0.337,-0.838 -0.753,-0.838 z"
         id="path3277"
         inkscape:connector-curvature="0"
         style="fill:#000000" /><path
         d="m 81.229,16.767 c 0.415,0 0.753,0.162 0.753,-0.759 V 8.379 c 0,-0.921 -0.338,-0.837 -0.753,-0.837 -0.416,0 -0.753,-0.084 -0.753,0.837 v 0.439 c 0,-2.369 -1.798,-2.369 -2.661,-2.369 h -3.163 c -0.657,0 -1.853,0.007 -2.387,1.055 H 17.854 C 17.314,6.457 16.106,6.449 15.44,6.449 h -3.203 c -0.813,0 -2.425,0.026 -2.646,1.938 V 8.379 c 0,-0.921 -0.358,-0.837 -0.8,-0.837 -0.442,0 -0.8,-0.084 -0.8,0.837 v 7.629 c 0,0.921 0.358,0.759 0.8,0.759 0.426,0 0.771,0.141 0.795,-0.675 0.193,1.636 1.41,1.882 2.267,1.914 v 56.23 c -1.358,0.136 -2.426,1.272 -2.426,2.665 v 4.477 c 0,1.483 1.207,2.691 2.691,2.691 h 65.765 c 1.483,0 2.691,-1.208 2.691,-2.691 V 76.9 c 0,-1.393 -1.068,-2.529 -2.427,-2.665 V 18.007 c 0.922,-0.027 2.329,-0.267 2.329,-2.362 v 0.363 c 0.001,0.921 0.337,0.759 0.753,0.759 z M 72.027,8.465 c -0.012,0.119 -0.036,0.22 -0.036,0.354 V 9.755 C 71.943,9.741 71.895,9.726 71.843,9.726 H 18.279 c -0.053,0 -0.101,0.015 -0.148,0.029 V 8.818 c 0,-0.134 -0.025,-0.234 -0.036,-0.354 h 53.932 z m -39.794,2.767 c 1.06,0 1.922,1.021 1.922,2.277 v 3.994 c 0,1.256 -0.862,2.278 -1.922,2.278 h -3.459 c -1.06,0 -1.921,-1.022 -1.921,-2.278 v -3.994 c 0,-1.256 0.862,-2.277 1.921,-2.277 h 3.459 z m -14.102,4.413 v -4.912 c 0.048,0.014 0.096,0.029 0.148,0.029 h 9.353 c -0.912,0.488 -1.548,1.532 -1.548,2.747 v 2.305 H 21.58 c -0.262,0 -0.475,0.291 -0.475,0.649 0,0.358 0.213,0.649 0.475,0.649 h 4.504 v 0.391 c 0,1.68 1.207,3.046 2.69,3.046 h 1.25 v 2.128 h 0.961 v -2.128 h 1.249 c 1.484,0 2.691,-1.367 2.691,-3.046 v -0.391 h 34.42 c 0.263,0 0.476,-0.291 0.476,-0.649 0,-0.358 -0.213,-0.649 -0.476,-0.649 h -34.42 v -2.305 c 0,-1.215 -0.637,-2.259 -1.548,-2.747 h 38.467 c 0.053,0 0.101,-0.015 0.148,-0.029 v 4.912 c 0,2.367 1.798,2.367 2.661,2.367 h 2.534 V 74.21 H 71.776 V 35.793 h 3.169 c 0.616,0 0.547,-0.875 0.547,-1.953 0,-1.079 0.069,-1.953 -0.547,-1.953 h -3.169 v -1.604 h 3.33 c 0.213,0 0.386,-0.171 0.386,-0.384 0,-0.213 -0.173,-0.385 -0.386,-0.385 h -3.33 v -8.958 c 0,-0.653 -0.416,-1.184 -0.93,-1.184 -0.513,0 -0.929,0.53 -0.929,1.184 v 8.958 H 21.105 v -8.958 c 0,-0.653 -0.417,-1.184 -0.929,-1.184 -0.513,0 -0.929,0.53 -0.929,1.184 v 8.958 h -3.715 c -0.212,0 -0.385,0.172 -0.385,0.385 0,0.213 0.172,0.384 0.385,0.384 h 3.715 v 1.604 h -3.493 c -0.617,0 -0.607,0.875 -0.607,1.953 0,1.078 -0.009,1.953 0.607,1.953 h 3.493 V 74.209 H 12.814 V 18.011 h 2.625 c 0.874,0 2.692,0 2.692,-2.366 z m 2.974,16.242 v -1.604 h 48.812 v 1.604 H 21.105 z m 48.812,3.906 V 74.209 H 21.105 V 35.793 H 69.917 z M 10.315,15.645 V 8.818 c 0,-1.361 0.62,-1.601 1.921,-1.601 h 3.203 c 1.302,0 1.922,0.24 1.922,1.601 v 6.826 c 0,1.359 -0.62,1.598 -1.922,1.598 h -3.203 c -1.301,10e-4 -1.921,-0.239 -1.921,-1.597 z M 79.805,76.9 v 4.477 c 0,1.06 -0.862,1.922 -1.922,1.922 H 12.118 c -1.06,0 -1.922,-0.862 -1.922,-1.922 V 76.9 c 0,-1.06 0.862,-1.922 1.922,-1.922 h 65.765 c 1.059,0.001 1.922,0.863 1.922,1.922 z M 79.707,15.645 c 0,1.359 -0.609,1.598 -1.892,1.598 h -3.163 c -1.282,0 -1.892,-0.239 -1.892,-1.598 V 8.818 c 0,-1.361 0.609,-1.601 1.892,-1.601 h 3.163 c 1.282,0 1.892,0.24 1.892,1.601 v 6.827 z"
         id="path3279"
         inkscape:connector-curvature="0"
         style="fill:#000000" /></g></g><path
     style="fill:#999999"
     d="m 11.288135,83.898305 c -0.614944,-0.614944 -0.614944,-6.478276 0,-7.09322 0.663439,-0.663439 70.116224,-0.663439 70.779661,0 0.614944,0.614944 0.614944,6.478276 0,7.09322 -0.663437,0.663439 -70.116222,0.663439 -70.779661,0 l 0,0 z m 4.042474,-3.45959 c 0.122653,-2.349737 -0.479295,-3.14772 -1.644788,-2.180447 -0.692781,0.574957 -0.761663,3.462501 -0.09842,4.125744 1.010896,1.010896 1.624651,0.32599 1.743208,-1.945297 z M 18,82.372882 c 0.654402,-0.654402 0.577455,-3.544449 -0.109551,-4.114614 -1.092378,-0.906593 -1.720958,-0.169556 -1.720958,2.017899 0,1.125227 0.114407,2.160274 0.254238,2.300104 0.390603,0.390604 1.069933,0.302948 1.576271,-0.203389 z m 61.539887,-0.554869 c 0.867291,-0.784888 0.89426,-1.951447 0.06626,-2.866374 -1.216983,-1.344752 -3.563775,-0.401812 -3.563775,1.431922 0,1.827129 2.108193,2.691772 3.497515,1.434452 l 0,0 z"
     id="path3006"
     inkscape:connector-curvature="0"
     transform="matrix(1.35,0,0,1.35,-11.25,-9)" /><path
     style="fill:#666666"
     d="m 11.497881,15.681319 c -0.573916,-0.334276 -0.667373,-0.998323 -0.667373,-4.741935 0,-3.9136065 0.07449,-4.3930936 0.737641,-4.748 1.015289,-0.5433662 5.108298,-0.497987 5.669139,0.062854 0.301766,0.3017662 0.457627,1.9207471 0.457627,4.7535313 0,3.856934 -0.07538,4.336244 -0.737641,4.690678 -0.941384,0.503814 -4.584615,0.492383 -5.459393,-0.01713 z"
     id="path3008"
     inkscape:connector-curvature="0"
     transform="matrix(1.35,0,0,1.35,-11.25,-9)" /><path
     style="fill:#666666"
     d="m 29.326271,18.329222 c -1.195183,-0.712547 -1.322683,-1.100873 -1.328906,-4.047442 -0.0076,-3.585094 0.586936,-4.2902542 3.617041,-4.2902542 3.032602,0 3.622882,0.7026732 3.622882,4.3127042 0,3.591204 -0.399434,4.152089 -3.089037,4.337641 -1.174852,0.08105 -2.386839,-0.05323 -2.82198,-0.312649 z"
     id="path3010"
     inkscape:connector-curvature="0"
     transform="matrix(1.35,0,0,1.35,-11.25,-9)" /><path
     style="fill:#666666"
     d="m 76.328389,15.681319 c -0.573915,-0.334276 -0.667372,-0.998323 -0.667372,-4.741935 0,-5.0189902 0.08261,-5.1427734 3.432203,-5.1427734 3.350146,0 3.432203,0.1230864 3.432203,5.1483054 0,3.919075 -0.07441,4.39858 -0.737641,4.753531 -0.941383,0.503814 -4.584614,0.492383 -5.459393,-0.01713 z"
     id="path3012"
     inkscape:connector-curvature="0"
     transform="matrix(1.35,0,0,1.35,-11.25,-9)" /><path
     style="fill:#e6e6e6"
     d="m 22.008323,55.254967 0,-19.830509 25.169492,0 25.169491,0 0,19.830509 0,19.830509 -25.169491,0 -25.169492,0 0,-19.830509 z"
     id="path3009"
     inkscape:connector-curvature="0"
     transform="matrix(1.35,0,0,1.35,-11.25,-9)" /><path
     style="fill:#e6e6e6"
     d="m 13.427814,46.131228 0,-28.954247 1.867014,-0.113743 c 3.418162,-0.208244 3.540676,-0.361912 3.634957,-4.559277 l 0.06765,-3.0117064 4.651632,0 4.651631,0 -0.398069,0.3980686 C 27.236095,10.556855 26.96595,11.483555 26.96595,13.103477 l 0,1.526014 -2.526483,0.0532 c -2.474737,0.05211 -2.527759,0.06221 -2.58879,0.492724 -0.12332,0.869919 0.212244,0.990564 2.755146,0.990564 l 2.360127,0 0,0.511833 c 0,0.804467 0.729038,2.105744 1.418451,2.531825 0.418747,0.2588 0.955445,0.388546 1.607233,0.388546 l 0.978553,0 0,1.144068 0,1.144068 0.667373,0 0.667373,0 0,-1.144068 0,-1.144068 0.98926,0 c 0.710831,0 1.167794,-0.12075 1.623593,-0.429026 0.705104,-0.476892 1.391384,-1.705712 1.391384,-2.491345 l 0,-0.511833 17.917021,0 c 17.832574,0 17.917999,-0.0018 18.124971,-0.388558 0.114372,-0.213707 0.15451,-0.556927 0.0892,-0.762712 C 72.323473,14.64644 72.038604,14.64056 54.315389,14.64056 l -18.006219,0 0,-1.531548 c 0,-1.625655 -0.269409,-2.551421 -0.936677,-3.2186888 l -0.398068,-0.3980686 19.830508,0 19.830509,0 0,2.9649774 c 0,4.21167 0.144053,4.40326 3.462769,4.605445 l 1.876214,0.114304 0,28.954247 0,28.954248 -2.764831,0 -2.76483,0 0,-19.823605 0,-19.823604 1.85911,-0.05457 1.85911,-0.05457 0.169826,-1.001059 c 0.09932,-0.585429 0.09932,-1.41669 0,-2.002119 l -0.169826,-1.001059 -1.85911,-0.05457 -1.85911,-0.05457 0,-0.755807 0,-0.755808 1.886379,0 c 1.426754,0 1.91095,-0.06403 1.987219,-0.262781 0.199554,-0.52003 -0.319212,-0.690609 -2.100293,-0.690609 l -1.773305,0 0,-4.928074 c 0,-4.532079 -0.02802,-4.953432 -0.3487,-5.243644 -0.589338,-0.533344 -1.161294,-0.399072 -1.472471,0.345679 -0.215256,0.515181 -0.276287,1.673481 -0.276287,5.243644 l 0,4.582395 -25.169491,0 -25.169492,0 0,-4.819861 c 0,-4.053744 -0.04718,-4.887221 -0.296829,-5.243644 -0.360012,-0.513988 -1.056009,-0.549177 -1.485059,-0.07508 -0.276368,0.305382 -0.31557,0.955982 -0.31557,5.237193 l 0,4.888493 -2.049788,0.05412 c -1.961605,0.05179 -2.052409,0.07258 -2.110719,0.483146 -0.06004,0.422746 -0.03004,0.429025 2.049788,0.429025 l 2.110719,0 0,0.762712 0,0.762712 -1.883432,0 c -1.384924,0 -1.94228,0.07091 -2.105766,0.267897 -0.238699,0.287615 -0.316338,3.035521 -0.101578,3.595178 0.109703,0.285881 0.401804,0.33184 2.109058,0.33184 l 1.981718,0 0,19.830509 0,19.830509 -3.241525,0 -3.241526,0 0,-28.954248 z"
     id="path3011"
     inkscape:connector-curvature="0"
     transform="matrix(1.35,0,0,1.35,-11.25,-9)" /><path
     style="fill:#e6e6e6"
     d="m 22.008323,30.466831 0,-0.762712 25.169492,0 25.169491,0 0,0.762712 0,0.762712 -25.169491,0 -25.169492,0 0,-0.762712 z"
     id="path3013"
     inkscape:connector-curvature="0"
     transform="matrix(1.35,0,0,1.35,-11.25,-9)" /><path
     style="fill:#e6e6e6"
     d="m 18.957475,7.6808139 0,-0.4766949 27.838984,0 27.838983,0 0,0.4766949 0,0.4766949 -27.838983,0 -27.838984,0 0,-0.4766949 z"
     id="path3017"
     inkscape:connector-curvature="0"
     transform="matrix(1.35,0,0,1.35,-11.25,-9)" /></svg>