<?xml version="1.0" encoding="UTF-8" standalone="no"?>
<svg
   xmlns:dc="http://purl.org/dc/elements/1.1/"
   xmlns:cc="http://creativecommons.org/ns#"
   xmlns:rdf="http://www.w3.org/1999/02/22-rdf-syntax-ns#"
   xmlns:svg="http://www.w3.org/2000/svg"
   xmlns="http://www.w3.org/2000/svg"
   xmlns:sodipodi="http://sodipodi.sourceforge.net/DTD/sodipodi-0.dtd"
   xmlns:inkscape="http://www.inkscape.org/namespaces/inkscape"
   version="1.1"
   id="Layer_1"
   x="0px"
   y="0px"
   width="100px"
   height="100px"
   viewBox="0 0 100 100"
   enable-background="new 0 0 100 100"
   xml:space="preserve"
   inkscape:version="0.48.5 r10040"
   sodipodi:docname="alarm_panel_disarmed.svg"><metadata
     id="metadata45"><rdf:RDF><cc:Work
         rdf:about=""><dc:format>image/svg+xml</dc:format><dc:type
           rdf:resource="http://purl.org/dc/dcmitype/StillImage" /><dc:title></dc:title></cc:Work></rdf:RDF></metadata><defs
     id="defs43" /><sodipodi:namedview
     pagecolor="#ffffff"
     bordercolor="#666666"
     borderopacity="1"
     objecttolerance="10"
     gridtolerance="10"
     guidetolerance="10"
     inkscape:pageopacity="0"
     inkscape:pageshadow="2"
     inkscape:window-width="1527"
     inkscape:window-height="1121"
     id="namedview41"
     showgrid="false"
     inkscape:zoom="2.36"
     inkscape:cx="50"
     inkscape:cy="50"
     inkscape:window-x="792"
     inkscape:window-y="276"
     inkscape:window-maximized="0"
     inkscape:current-layer="Layer_1" /><path
     d="M52.895,27.581H13.528c-0.69,0-1.25,0.56-1.25,1.25v43.576c0,0.69,0.56,1.25,1.25,1.25h39.366c0.69,0,1.25-0.56,1.25-1.25  V28.831C54.145,28.14,53.585,27.581,52.895,27.581z M51.645,71.156H14.778V30.081h36.866V71.156z"
     id="path3" /><path
     d="M95,18.496H5c-0.69,0-1.25,0.56-1.25,1.25v60.508c0,0.69,0.56,1.25,1.25,1.25h90c0.69,0,1.25-0.56,1.25-1.25V19.746  C96.25,19.056,95.69,18.496,95,18.496z M54.483,20.996c-1.003,1.083-2.649,1.945-4.502,1.945c-1.798,0-3.446-0.869-4.468-1.945  H54.483z M93.75,79.004H6.25V20.996h36.229c1.209,2.519,4.357,4.445,7.502,4.445c3.558,0,6.412-2.131,7.511-4.445H93.75V79.004z"
     id="path5" /><path
     d="M59.237,36.931h5.075c0.69,0,1.25-0.56,1.25-1.25v-5.075c0-0.69-0.56-1.25-1.25-1.25h-5.075c-0.69,0-1.25,0.56-1.25,1.25  v5.075C57.987,36.372,58.547,36.931,59.237,36.931z M60.487,31.856h2.575v2.575h-2.575V31.856z"
     id="path7" /><path
     d="M81.397,36.931h5.074c0.69,0,1.25-0.56,1.25-1.25v-5.075c0-0.69-0.56-1.25-1.25-1.25h-5.074c-0.69,0-1.25,0.56-1.25,1.25  v5.075C80.147,36.372,80.707,36.931,81.397,36.931z M82.647,31.856h2.574v2.575h-2.574V31.856z"
     id="path9" /><path
     d="M70.317,36.931h5.074c0.69,0,1.25-0.56,1.25-1.25v-5.075c0-0.69-0.56-1.25-1.25-1.25h-5.074c-0.69,0-1.25,0.56-1.25,1.25  v5.075C69.067,36.372,69.627,36.931,70.317,36.931z M71.567,31.856h2.574v2.575h-2.574V31.856z"
     id="path11" /><path
     d="M59.237,48.581h5.075c0.69,0,1.25-0.56,1.25-1.25v-5.075c0-0.69-0.56-1.25-1.25-1.25h-5.075c-0.69,0-1.25,0.56-1.25,1.25  v5.075C57.987,48.021,58.547,48.581,59.237,48.581z M60.487,43.506h2.575v2.575h-2.575V43.506z"
     id="path13" /><path
     d="M81.397,48.581h5.074c0.69,0,1.25-0.56,1.25-1.25v-5.075c0-0.69-0.56-1.25-1.25-1.25h-5.074c-0.69,0-1.25,0.56-1.25,1.25  v5.075C80.147,48.021,80.707,48.581,81.397,48.581z M82.647,43.506h2.574v2.575h-2.574V43.506z"
     id="path15" /><path
     d="M70.317,48.581h5.074c0.69,0,1.25-0.56,1.25-1.25v-5.075c0-0.69-0.56-1.25-1.25-1.25h-5.074c-0.69,0-1.25,0.56-1.25,1.25  v5.075C69.067,48.021,69.627,48.581,70.317,48.581z M71.567,43.506h2.574v2.575h-2.574V43.506z"
     id="path17" /><path
     d="M59.237,60.23h5.075c0.69,0,1.25-0.56,1.25-1.25v-5.075c0-0.69-0.56-1.25-1.25-1.25h-5.075c-0.69,0-1.25,0.56-1.25,1.25  v5.075C57.987,59.671,58.547,60.23,59.237,60.23z M60.487,55.155h2.575v2.575h-2.575V55.155z"
     id="path19" /><path
     d="M81.397,60.23h5.074c0.69,0,1.25-0.56,1.25-1.25v-5.075c0-0.69-0.56-1.25-1.25-1.25h-5.074c-0.69,0-1.25,0.56-1.25,1.25  v5.075C80.147,59.671,80.707,60.23,81.397,60.23z M82.647,55.155h2.574v2.575h-2.574V55.155z"
     id="path21" /><path
     d="M70.317,60.23h5.074c0.69,0,1.25-0.56,1.25-1.25v-5.075c0-0.69-0.56-1.25-1.25-1.25h-5.074c-0.69,0-1.25,0.56-1.25,1.25  v5.075C69.067,59.671,69.627,60.23,70.317,60.23z M71.567,55.155h2.574v2.575h-2.574V55.155z"
     id="path23" /><path
     d="M59.237,71.88h5.075c0.69,0,1.25-0.56,1.25-1.25v-5.074c0-0.69-0.56-1.25-1.25-1.25h-5.075c-0.69,0-1.25,0.56-1.25,1.25  v5.074C57.987,71.32,58.547,71.88,59.237,71.88z M60.487,66.806h2.575v2.574h-2.575V66.806z"
     id="path25" /><path
     d="M81.397,71.88h5.074c0.69,0,1.25-0.56,1.25-1.25v-5.074c0-0.69-0.56-1.25-1.25-1.25h-5.074c-0.69,0-1.25,0.56-1.25,1.25  v5.074C80.147,71.32,80.707,71.88,81.397,71.88z M82.647,66.806h2.574v2.574h-2.574V66.806z"
     id="path27" /><path
     d="M70.317,71.88h5.074c0.69,0,1.25-0.56,1.25-1.25v-5.074c0-0.69-0.56-1.25-1.25-1.25h-5.074c-0.69,0-1.25,0.56-1.25,1.25  v5.074C69.067,71.32,69.627,71.88,70.317,71.88z M71.567,66.806h2.574v2.574h-2.574V66.806z"
     id="path29" /><path
     d="M24.968,63.244h16.35c0.432,0,0.783-0.35,0.783-0.782V49.141c0-0.432-0.351-0.783-0.783-0.783h-0.933v-3.915  c0-3.993-3.249-7.242-7.242-7.242s-7.242,3.249-7.242,7.242v3.915h-0.933c-0.432,0-0.783,0.351-0.783,0.783v13.321  C24.185,62.895,24.536,63.244,24.968,63.244z M30.055,44.444c0-1.702,1.385-3.087,3.087-3.087s3.087,1.385,3.087,3.087v3.915h-6.175  V44.444z"
     id="path31" /><circle
     cx="90.63"
     cy="24.172"
     r="1.121"
     id="circle33" /><circle
     cx="90.63"
     cy="75.963"
     r="1.121"
     id="circle35" /><circle
     cx="9.61"
     cy="24.172"
     r="1.121"
     id="circle37" /><circle
     cx="9.61"
     cy="75.963"
     r="1.121"
     id="circle39" /><path
     style="fill:#ff0000"
     d="m 14.830508,50.423729 0,-20.338983 18.220339,0 18.220339,0 0,20.338983 0,20.338983 -18.220339,0 -18.220339,0 0,-20.338983 z m 26.872125,12.878394 c 0.57478,-0.220564 0.670248,-1.282425 0.670248,-7.454923 0,-6.679862 -0.05713,-7.212664 -0.794009,-7.405363 -0.6598,-0.172542 -0.827527,-0.729934 -0.992314,-3.297658 -0.140363,-2.187155 -0.471741,-3.532449 -1.134129,-4.604215 -2.354296,-3.809331 -7.598197,-4.618857 -11.058551,-1.707161 -1.968966,1.656776 -2.54642,3.127417 -2.54642,6.485138 0,2.704658 -0.08014,2.987144 -0.847458,2.987144 -0.814863,0 -0.847458,0.282486 -0.847458,7.344632 0,4.039549 0.127119,7.471752 0.282486,7.627119 0.353039,0.353039 16.352441,0.376469 17.267605,0.02529 l 0,-10e-7 z"
     id="path3022"
     inkscape:connector-curvature="0" /><path
     style="fill:#f2f2f2"
     d="m 30.084746,46.637754 c 0,-4.290964 2.550436,-6.413974 4.892142,-4.072269 0.854193,0.854194 1.040061,1.459986 1.040061,3.389831 l 0,2.349769 -2.966102,0 -2.966101,0 0,-1.667331 z"
     id="path3024"
     inkscape:connector-curvature="0" /><path
     style="fill:#b3b3b3"
     d="m 6.3559322,50 0,-28.813559 17.9796208,0 17.979622,0 0.879268,1.234819 c 2.126845,2.986879 7.820765,3.977973 11.263303,1.960513 0.977881,-0.573076 2.095428,-1.526466 2.483436,-2.118644 l 0.705475,-1.076688 17.998703,0 17.998708,0 0,28.813559 0,28.813559 -43.644068,0 -43.6440678,0 0,-28.813559 z M 10.77532,76.407822 c 0.345399,-0.900097 -0.746234,-2.030941 -1.6322939,-1.690928 -0.3676474,0.141081 -0.6684498,0.739187 -0.6684498,1.329131 0,0.848852 0.2115342,1.072619 1.0139878,1.072619 0.5581319,0 1.1366159,-0.319563 1.2867559,-0.710822 z m 81.03321,0.04237 c 0.340012,-0.886059 -0.790831,-1.977695 -1.690928,-1.632297 -0.708386,0.271835 -0.96511,1.481483 -0.428335,2.018259 0.528059,0.528059 1.861725,0.285169 2.119263,-0.385962 z m -37.783106,-25.814602 0,-22.881356 -20.818188,-0.109895 -20.818187,-0.109896 -0.256535,0.957353 c -0.465275,1.736343 -0.302797,43.532993 0.172682,44.421434 0.428534,0.800725 1.014601,0.820564 21.080508,0.71367 l 20.63972,-0.109954 0,-22.881356 z m 11.565157,17.862373 c 0.07812,-2.086042 -0.05957,-3.545826 -0.369678,-3.919491 -0.722657,-0.870746 -6.040814,-0.816678 -6.927924,0.07044 -0.780733,0.780729 -0.92906,5.253992 -0.218259,6.582136 0.398797,0.745161 0.826157,0.822978 3.919492,0.713669 l 3.47189,-0.122682 0.124479,-3.324068 0,0 z m 11.016665,-0.241335 c 0.08939,-2.566368 -0.02932,-3.662796 -0.423729,-3.913 -0.637195,-0.404237 -5.459877,-0.481589 -6.44547,-0.103381 -0.536022,0.205691 -0.67025,0.955284 -0.67025,3.742936 0,1.917157 0.134203,3.619941 0.298228,3.783967 0.164022,0.164025 1.832454,0.243474 3.707628,0.176555 l 3.409398,-0.121674 0.124195,-3.565403 0,0 z m 11.089712,2.957666 c 0.24125,-0.45078 0.438635,-1.962585 0.438635,-3.359564 0,-3.364165 -0.527093,-3.871682 -4.021034,-3.871682 -4.064127,0 -4.029813,-0.03406 -4.029813,4.000135 0,1.917157 0.127118,3.612861 0.282487,3.768225 0.155364,0.155369 1.76942,0.282487 3.586784,0.282487 2.833199,0 3.366839,-0.116851 3.742941,-0.819601 l 0,0 z M 64.980962,60.05493 c 0.613068,-0.448286 0.715169,-1.103643 0.610648,-3.919491 L 65.466102,52.754237 62.084898,52.62873 c -4.10461,-0.152361 -4.457779,0.163734 -4.457779,3.989787 0,3.467394 0.507309,3.974703 3.974703,3.974703 1.468174,0 2.970203,-0.23927 3.37914,-0.53829 z m 11.202555,0.177712 c 0.394394,-0.250204 0.513123,-1.346631 0.423729,-3.913003 l -0.124195,-3.565402 -3.601695,0 -3.601695,0 -0.124195,3.565402 c -0.08939,2.566372 0.02932,3.662799 0.423729,3.913003 0.30136,0.19118 1.78733,0.347601 3.302161,0.347601 1.51483,0 3.000801,-0.156421 3.302161,-0.347601 l 0,0 z m 11.082691,-0.04063 c 0.80258,-0.50775 1.147152,-5.491422 0.467483,-6.761398 -0.454127,-0.848546 -0.769005,-0.911999 -3.965191,-0.799059 l -3.47189,0.122684 -0.124195,3.565402 c -0.08939,2.566372 0.02932,3.662799 0.423729,3.913003 0.74561,0.473013 5.907869,0.441567 6.670064,-0.04063 l 0,0 z M 65.590581,45.192883 c 0.07812,-2.086043 -0.05957,-3.545828 -0.369678,-3.919491 -0.722657,-0.870747 -6.040814,-0.816678 -6.927924,0.07043 -0.780733,0.78073 -0.92906,5.253991 -0.218259,6.582137 0.398797,0.745162 0.826157,0.822976 3.919492,0.713669 l 3.47189,-0.122683 0.124479,-3.324066 z m 11.016665,-0.241335 c 0.08939,-2.566372 -0.02932,-3.6628 -0.423729,-3.913003 -0.637195,-0.404236 -5.459877,-0.481588 -6.44547,-0.10338 -0.536022,0.205689 -0.67025,0.955285 -0.67025,3.742938 0,1.917156 0.134203,3.619941 0.298228,3.783966 0.164022,0.164025 1.832454,0.243474 3.707628,0.176553 l 3.409398,-0.121673 0.124195,-3.565401 0,0 z m 11.089712,2.957664 c 0.24125,-0.45078 0.438635,-1.962584 0.438635,-3.359564 0,-3.364166 -0.527093,-3.871682 -4.021034,-3.871682 -4.064127,0 -4.029813,-0.03406 -4.029813,4.000137 0,1.917156 0.127118,3.612858 0.282487,3.768225 0.155364,0.155367 1.76942,0.282486 3.586784,0.282486 2.833199,0 3.366839,-0.116853 3.742941,-0.819602 l 0,0 z M 64.980962,36.749845 c 0.613068,-0.448285 0.715169,-1.103642 0.610648,-3.919491 l -0.125508,-3.381201 -3.381204,-0.125508 c -4.10461,-0.15236 -4.457779,0.163734 -4.457779,3.989788 0,3.467394 0.507309,3.974703 3.974703,3.974703 1.468174,0 2.970203,-0.239271 3.37914,-0.538291 z m 11.202555,0.177712 c 0.394394,-0.250204 0.513123,-1.346631 0.423729,-3.913003 l -0.124195,-3.565401 -3.601695,0 -3.601695,0 -0.124195,3.565401 c -0.08939,2.566372 0.02932,3.662799 0.423729,3.913003 0.30136,0.191181 1.78733,0.347601 3.302161,0.347601 1.51483,0 3.000801,-0.15642 3.302161,-0.347601 z m 11.286216,-0.305281 c 0.829195,-0.829195 0.920271,-5.603901 0.127572,-6.687983 -0.448288,-0.613067 -1.103644,-0.71517 -3.919491,-0.610648 l -3.381204,0.125508 -0.124195,3.565401 c -0.08939,2.566372 0.02932,3.662799 0.423729,3.913003 1.02011,0.647156 6.148945,0.419365 6.873589,-0.305281 l 0,0 z M 10.767061,24.734429 c 0.306929,-0.799844 -0.43101,-1.853073 -1.2983447,-1.853073 -0.7214498,0 -1.1765832,1.032025 -0.8409085,1.90678 0.3258434,0.849134 1.8070702,0.811947 2.1392532,-0.05371 z m 80.970227,-0.581887 c 0,-0.776579 -0.254974,-1.095528 -0.955284,-1.194973 -1.041148,-0.147844 -1.632483,0.760849 -1.210589,1.860286 0.153136,0.399068 0.637589,0.611027 1.210589,0.529661 0.70031,-0.09944 0.955284,-0.418394 0.955284,-1.194974 z"
     id="path3026"
     inkscape:connector-curvature="0" /><path
     style="fill:#b3b3b3"
     d=""
     id="path3028"
     inkscape:connector-curvature="0" /><path
     style="fill:#b3b3b3"
     d="m 47.775424,20.87405 c 1.223517,-0.08559 3.225635,-0.08559 4.449152,0 1.223517,0.08559 0.222458,0.155626 -2.224576,0.155626 -2.447034,0 -3.448093,-0.07003 -2.224576,-0.155626 z"
     id="path3030"
     inkscape:connector-curvature="0" /><path
     style="fill:#b3b3b3"
     d="m 48.167623,22.256164 c -2.617675,-0.917206 -2.345413,-1.070671 1.867688,-1.052758 3.564816,0.01516 3.877202,0.07665 2.930791,0.576964 -1.775537,0.938617 -3.102176,1.070161 -4.798479,0.475794 z"
     id="path3032"
     inkscape:connector-curvature="0" /><path
     style="fill:#ff0000"
     d="m 30.267353,46.080508 c 0.38027,-2.89918 1.193773,-4.131355 2.72759,-4.131355 1.693963,0 2.526667,1.148612 2.854426,3.937324 l 0.284259,2.418608 -3.07903,0 -3.079031,0 0.291786,-2.224577 z"
     id="path3034"
     inkscape:connector-curvature="0" /></svg>