<?xml version="1.0" encoding="UTF-8" standalone="no"?>
<svg
   xmlns:dc="http://purl.org/dc/elements/1.1/"
   xmlns:cc="http://creativecommons.org/ns#"
   xmlns:rdf="http://www.w3.org/1999/02/22-rdf-syntax-ns#"
   xmlns:svg="http://www.w3.org/2000/svg"
   xmlns="http://www.w3.org/2000/svg"
   xmlns:sodipodi="http://sodipodi.sourceforge.net/DTD/sodipodi-0.dtd"
   xmlns:inkscape="http://www.inkscape.org/namespaces/inkscape"
   version="1.1"
   id="Layer_1"
   x="0px"
   y="0px"
   width="100px"
   height="100px"
   viewBox="5.0 -10.0 100.0 135.0"
   enable-background="new 0 0 100 100"
   xml:space="preserve"
   inkscape:version="0.48.5 r10040"
   sodipodi:docname="christmastree-on.svg"><metadata
     id="metadata3059"><rdf:RDF><cc:Work
         rdf:about=""><dc:format>image/svg+xml</dc:format><dc:type
           rdf:resource="http://purl.org/dc/dcmitype/StillImage" /><dc:title /></cc:Work></rdf:RDF></metadata><defs
     id="defs3057" /><sodipodi:namedview
     pagecolor="#ffffff"
     bordercolor="#666666"
     borderopacity="1"
     objecttolerance="10"
     gridtolerance="10"
     guidetolerance="10"
     inkscape:pageopacity="0"
     inkscape:pageshadow="2"
     inkscape:window-width="1216"
     inkscape:window-height="745"
     id="namedview3055"
     showgrid="false"
     inkscape:zoom="2.36"
     inkscape:cx="-21.398305"
     inkscape:cy="50"
     inkscape:window-x="0"
     inkscape:window-y="0"
     inkscape:window-maximized="0"
     inkscape:current-layer="Layer_1" /><polygon
     points="61.432,9.357 56.351,14.31 57.552,21.305 51.27,18.002 44.988,21.305 46.188,14.31 41.106,9.357 48.128,8.336 51.27,1.973 54.41,8.336 "
     id="polygon3043"
     transform="matrix(1.3,0,0,1.3,-15.38085,-8.33835)" /><path
     d="m 68.50945,45.54925 -9.5277,-24.6467 c -2.5259,0.1625 -5.1207,0.247 -7.7649,0.247 -2.6,0 -5.1532,-0.0832 -7.644,-0.2418 l -9.5303,24.6584 c 5.3326,0.8099 11.1241,1.2545 17.1743,1.2545 6.097,0.0013 11.9249,-0.4498 17.2926,-1.2714 z m -12.7153,-9.0376 c 1.3455,0 2.4375,1.0907 2.4375,2.4375 0,1.3468 -1.092,2.4375 -2.4375,2.4375 -1.3455,0 -2.4375,-1.0907 -2.4375,-2.4375 0,-1.3468 1.092,-2.4375 2.4375,-2.4375 z m -9.1,-8.2056 c 0,-1.6601 1.3455,-3.0056 3.0056,-3.0056 1.6601,0 3.0056,1.3455 3.0056,3.0056 0,1.6601 -1.3442,3.0056 -3.0056,3.0056 -1.6614,0 -3.0056,-1.3455 -3.0056,-3.0056 z"
     id="path3045"
     inkscape:connector-curvature="0" /><path
     d="m 78.98095,72.63735 -9.1468,-23.6613 c -5.7278,0.9555 -12.012,1.4898 -18.616,1.4898 -6.5572,0 -12.8024,-0.5265 -18.5003,-1.4703 l -9.1507,23.6717 c 7.8234,2.1879 17.3589,3.4723 27.651,3.4723 10.3415,-0.0013 19.9173,-1.2974 27.7628,-3.5022 z m -12.5424,-7.8052 c 1.6601,0 3.0056,1.3455 3.0056,3.0056 0,1.6601 -1.3455,3.0056 -3.0056,3.0056 -1.6601,0 -3.0056,-1.3455 -3.0056,-3.0056 0,-1.6601 1.3442,-3.0056 3.0056,-3.0056 z m -10.6444,-6.6625 c 1.3455,0 2.4375,1.092 2.4375,2.4375 0,1.3455 -1.092,2.4375 -2.4375,2.4375 -1.3455,0 -2.4375,-1.092 -2.4375,-2.4375 0,-1.3455 1.092,-2.4375 2.4375,-2.4375 z m -17.1691,12.675 c -1.6601,0 -3.0056,-1.3455 -3.0056,-3.0056 0,-1.6601 1.3455,-3.0056 3.0056,-3.0056 1.6601,0 3.0056,1.3455 3.0056,3.0056 0,1.6601 -1.3442,3.0056 -3.0056,3.0056 z m 1.8694,-12.675 c -1.3455,0 -2.4375,-1.0907 -2.4375,-2.4375 0,-1.3468 1.092,-2.4375 2.4375,-2.4375 1.3455,0 2.4375,1.092 2.4375,2.4375 0,1.3455 -1.092,2.4375 -2.4375,2.4375 z"
     id="path3047"
     inkscape:connector-curvature="0" /><path
     d="m 80.38885,76.28385 c -8.0951,2.4557 -18.1987,3.9182 -29.1707,3.9182 -10.9213,0 -20.9833,-1.4495 -29.0615,-3.8844 l -8.6294,22.3249 c 6.9706,3.4853 16.9442,5.9748 28.3595,6.8653 v 14.3546 h 18.7681 v -14.3637 c 11.4283,-0.9035 21.4032,-3.4086 28.3569,-6.9069 l -8.6229,-22.308 z m -53.1947,9.6278 c -1.3455,0 -2.4375,-1.092 -2.4375,-2.4375 0,-1.3455 1.092,-2.4375 2.4375,-2.4375 1.3455,0 2.4375,1.092 2.4375,2.4375 0,1.3455 -1.092,2.4375 -2.4375,2.4375 z m 5.4444,13.7306 c -1.6601,0 -3.0056,-1.3455 -3.0056,-3.0056 0,-1.6601 1.3455,-3.0056 3.0056,-3.0056 1.6601,0 3.0056,1.3455 3.0056,3.0056 0,1.6601 -1.3455,3.0056 -3.0056,3.0056 z m 15.4362,-8.8556 c -1.3455,0 -2.4375,-1.092 -2.4375,-2.4375 0,-1.3455 1.092,-2.4375 2.4375,-2.4375 1.3455,0 2.4375,1.092 2.4375,2.4375 0,1.3455 -1.0907,2.4375 -2.4375,2.4375 z m 13.1638,8.8556 c -1.6601,0 -3.0056,-1.3455 -3.0056,-3.0056 0,-1.6601 1.3455,-3.0056 3.0056,-3.0056 1.6601,0 3.0056,1.3455 3.0056,3.0056 0,1.6601 -1.3455,3.0056 -3.0056,3.0056 z m 15.3049,-7.4204 c -1.3455,0 -2.4375,-1.092 -2.4375,-2.4375 0,-1.3455 1.092,-2.4375 2.4375,-2.4375 1.3455,0 2.4375,1.092 2.4375,2.4375 0,1.3455 -1.092,2.4375 -2.4375,2.4375 z"
     id="path3049"
     inkscape:connector-curvature="0" /><path
     style="fill:#008000"
     d="m 42.436099,112.45549 0,-7.34981 -5.019598,-0.53378 c -6.087289,-0.64731 -17.735868,-3.52476 -20.906476,-5.164348 l -2.30967,-1.194375 1.755587,-4.634555 c 0.965573,-2.549006 2.804258,-7.340772 4.08597,-10.64837 l 2.330383,-6.013811 6.127771,1.384077 c 12.378499,2.79593 35.813226,2.545424 47.382504,-0.506494 2.221116,-0.585919 4.115285,-0.988413 4.209269,-0.894431 0.09398,0.09398 2.011141,4.955508 4.260352,10.803389 l 4.089471,10.632511 -3.174379,1.360697 c -4.212193,1.80556 -14.554218,4.31353 -20.335952,4.93154 l -4.647775,0.49679 0,7.34039 0,7.34038 -8.923727,0 -8.92373,0 0,-7.3498 z M 35.600822,96.987646 c 0.274828,-2.836959 -1.895461,-4.507138 -4.231895,-3.256717 -3.488382,1.866926 -2.26912,6.231714 1.635118,5.853496 2.058699,-0.199435 2.397344,-0.53808 2.596777,-2.596779 z m 28.392941,1.633449 c 2.255942,-2.718244 -1.361859,-6.498126 -4.574078,-4.779 -1.54775,0.828332 -1.816133,3.650991 -0.474688,4.992436 1.232785,1.232789 3.943618,1.118186 5.048766,-0.213436 l 0,0 z m 14.841444,-7.398562 c 0.657879,-0.792695 0.674602,-1.463498 0.0649,-2.602755 -1.583039,-2.957933 -5.888359,-1.059427 -4.870454,2.147711 0.568296,1.790541 3.469225,2.065233 4.805562,0.455044 l 0,0 z M 50.244361,88.200421 c 0,-1.980777 -0.249011,-2.230932 -2.220747,-2.230932 -1.551087,0 -2.298845,0.405526 -2.479736,1.344815 -0.464527,2.412098 0.477069,3.602844 2.651235,3.352762 1.728799,-0.198854 2.049248,-0.584573 2.049248,-2.466645 z M 28.617863,85.889926 c 1.591753,-0.610812 1.493466,-3.788402 -0.144296,-4.664904 -1.843812,-0.986778 -3.88493,0.320672 -3.88493,2.488517 0,2.192451 1.656148,3.087022 4.029222,2.176387 l 0,0 z"
     id="path3095"
     inkscape:connector-curvature="0" /><path
     style="fill:#008000"
     d="M 42.064276,75.510455 C 32.160487,74.159268 24.588641,72.618416 24.588641,71.95421 c 0,-0.437809 1.913992,-5.722749 4.253318,-11.744312 l 4.253316,-10.948298 2.253569,0.506486 c 2.901893,0.652197 29.068895,0.661665 31.999331,0.01158 l 2.230933,-0.49491 4.288857,11.227664 c 2.358871,6.175215 4.032071,11.476522 3.71822,11.780687 -1.934898,1.875173 -28.033422,4.239014 -35.521909,3.21735 z m -1.565625,-5.008253 c 0.879113,-0.642823 1.237816,-1.700661 1.071689,-3.160486 -0.205617,-1.806831 -0.637137,-2.23835 -2.443967,-2.443968 -1.459825,-0.166128 -2.517665,0.192575 -3.160488,1.071688 -1.291492,1.766223 -1.226868,2.263776 0.521061,4.011705 1.747931,1.747929 2.245484,1.812555 4.011705,0.521061 l 0,0 z m 27.799525,-0.191405 c 2.987609,-2.092604 1.659986,-5.535163 -2.134635,-5.535163 -2.966973,0 -4.164792,4.398081 -1.604031,5.889587 1.718787,1.001101 1.816623,0.991827 3.738666,-0.354424 l 0,0 z M 58.023007,62.208565 c 1.483347,-1.787323 0.235672,-4.125729 -2.201315,-4.125729 -1.494237,0 -2.275096,0.454933 -2.61408,1.522975 -0.570145,1.796367 0.768767,3.682534 2.61408,3.682534 0.717849,0 1.708439,-0.485902 2.201315,-1.07978 z M 43.03896,55.691624 c -0.28512,-1.90904 -2.220556,-3.20874 -3.84818,-2.584162 -1.608184,0.617118 -1.563131,3.963867 0.06562,4.875367 1.817087,1.016894 4.072576,-0.349324 3.78255,-2.291205 l 3e-6,0 z"
     id="path3097"
     inkscape:connector-curvature="0" /><path
     style="fill:#008000"
     d="m 37.416501,45.689995 c -1.329263,-0.188838 -2.416842,-0.583011 -2.416842,-0.87594 0,-0.292931 1.93435,-5.542306 4.298555,-11.66528 l 4.298556,-11.132676 7.694305,0 7.694304,0 4.385545,11.446277 c 2.412049,6.295454 4.196703,11.635118 3.965898,11.865924 -0.519053,0.519053 -26.593818,0.834262 -29.920321,0.361695 z m 20.606506,-5.047108 c 1.483347,-1.787324 0.235672,-4.125728 -2.201315,-4.125728 -1.494237,0 -2.275096,0.454931 -2.61408,1.522973 -0.570145,1.796369 0.768767,3.682534 2.61408,3.682534 0.717849,0 1.708439,-0.485901 2.201315,-1.079779 z M 52.475294,28.42226 c 0,-3.089797 -2.267926,-4.327005 -4.747796,-2.590036 -3.065799,2.147369 -1.385084,5.709845 2.513206,5.327038 2.000442,-0.196441 2.23459,-0.483234 2.23459,-2.737002 z"
     id="path3099"
     inkscape:connector-curvature="0" /><path
     style="fill:#ffff00"
     d="m 54.935811,16.494067 -3.488636,-1.881388 -3.409965,1.656689 c -1.875481,0.911178 -3.563203,1.656688 -3.750493,1.656688 -0.18729,0 -0.138504,-1.932906 0.108424,-4.295348 0.447644,-4.2828233 0.440224,-4.303234 -2.544434,-6.999695 L 38.857321,3.9266686 43.1243,3.4314322 c 4.254478,-0.4937833 4.272488,-0.506486 6.147259,-4.335466 l 1.880283,-3.8402292 1.947529,3.8432636 c 1.922423,3.7937203 2.001267,3.8499768 6.116157,4.3640988 l 4.168631,0.5208366 -2.983688,3.0669292 -2.983688,3.0669288 0.737307,3.980509 c 0.405519,2.189278 0.632244,4.047253 0.503832,4.12883 -0.128413,0.08157 -1.803362,-0.6983 -3.722111,-1.733066 l 0,0 z"
     id="path3101"
     inkscape:connector-curvature="0" /><path
     style="fill:#ff0000"
     d="m 47.749616,29.582682 c -1.388847,-1.673458 -0.218522,-3.591845 2.032011,-3.330857 1.523958,0.176729 1.950023,0.632339 1.950023,2.085249 0,2.164831 -2.555677,2.964264 -3.982034,1.245608 z"
     id="path3103"
     inkscape:connector-curvature="0" /><path
     style="fill:#ff0000"
     d="m 36.911886,69.556203 c -1.602301,-1.602303 -0.230368,-4.219675 2.04222,-3.896142 2.181033,0.310498 2.590815,3.206079 0.604188,4.26929 -1.13781,0.608938 -1.750747,0.522513 -2.646408,-0.373148 z"
     id="path3105"
     inkscape:connector-curvature="0" /><path
     style="fill:#ff0000"
     d="m 30.645802,97.997936 c -1.781948,-2.147116 1.221417,-5.150479 3.368532,-3.368533 1.519008,1.260666 0.921046,3.938094 -0.938859,4.203833 -0.853798,0.12199 -1.947151,-0.253898 -2.429673,-0.8353 z"
     id="path3107"
     inkscape:connector-curvature="0" /><path
     style="fill:#ff0000"
     d=""
     id="path3109"
     inkscape:connector-curvature="0" /><path
     style="fill:#ff0000"
     d="m 74.908557,91.051057 c -0.87705,-0.877051 -0.529041,-2.512722 0.629173,-2.95717 1.468103,-0.563364 3.363191,1.031919 2.841342,2.391837 -0.419029,1.091973 -2.5902,1.445648 -3.470515,0.565333 z"
     id="path3111"
     inkscape:connector-curvature="0" /><path
     style="fill:#ff0000"
     d="m 54.039731,61.362127 c -0.249587,-0.650415 -0.265642,-1.487015 -0.03568,-1.85911 0.541483,-0.876138 3.093788,-0.876138 3.63527,0 0.710868,1.150208 -0.419431,3.041684 -1.817636,3.041684 -0.73049,0 -1.532373,-0.532159 -1.78196,-1.182574 z"
     id="path3113"
     inkscape:connector-curvature="0" /><path
     style="fill:#ffff00"
     d=""
     id="path3115"
     inkscape:connector-curvature="0" /><path
     style="fill:#ffff00"
     d="m 54.361439,39.896132 c -1.114831,-1.343289 -0.398903,-2.635329 1.460253,-2.635329 1.859157,0 2.575085,1.29204 1.460254,2.635329 -1.132426,1.364488 -1.788081,1.364488 -2.920507,0 l 0,0 z"
     id="path3117"
     inkscape:connector-curvature="0" /><path
     style="fill:#ffff00"
     d="m 65.10866,69.695002 c -1.660767,-1.214384 -1.142593,-3.743208 0.824898,-4.025699 1.859966,-0.267055 3.469787,1.448341 2.857238,3.044619 -0.629842,1.641343 -2.205154,2.061074 -3.682136,0.98108 z"
     id="path3119"
     inkscape:connector-curvature="0" /><path
     style="fill:#ffff00"
     d="m 59.292032,98.487497 c -0.988019,-0.988019 -0.463106,-3.187606 0.939882,-3.938462 1.083684,-0.579971 1.721772,-0.482207 2.602754,0.398775 1.401045,1.401044 1.450539,1.967274 0.274737,3.143076 -0.972267,0.972267 -3.028123,1.185863 -3.817373,0.396611 z"
     id="path3121"
     inkscape:connector-curvature="0" /><path
     style="fill:#ffff00"
     d="m 39.574265,57.409102 c -1.35197,-0.835875 -0.78438,-3.3382 0.827602,-3.64864 0.712296,-0.137171 1.507153,0.303229 1.766347,0.978679 0.608501,1.585724 -1.251332,3.500053 -2.593949,2.669961 z"
     id="path3123"
     inkscape:connector-curvature="0" /><path
     style="fill:#ffff00"
     d="m 25.853756,85.127612 c -0.878982,-0.878981 -0.5793,-3.066852 0.47552,-3.471623 1.498905,-0.575184 2.902421,0.592528 2.599949,2.163137 -0.275848,1.432365 -2.152957,2.230999 -3.075469,1.308486 z"
     id="path3125"
     inkscape:connector-curvature="0" /><path
     style="fill:#ffff00"
     d="m 46.40406,88.894079 c -0.245974,-0.640998 -0.09065,-1.522032 0.345175,-1.957853 1.156703,-1.156703 3.123305,-0.141278 3.123305,1.612678 0,1.833987 -2.790601,2.111702 -3.46848,0.345175 z"
     id="path3127"
     inkscape:connector-curvature="0" /></svg>