<?xml version="1.0" encoding="UTF-8" standalone="no"?>
<svg
   xmlns:dc="http://purl.org/dc/elements/1.1/"
   xmlns:cc="http://creativecommons.org/ns#"
   xmlns:rdf="http://www.w3.org/1999/02/22-rdf-syntax-ns#"
   xmlns:svg="http://www.w3.org/2000/svg"
   xmlns="http://www.w3.org/2000/svg"
   xmlns:sodipodi="http://sodipodi.sourceforge.net/DTD/sodipodi-0.dtd"
   xmlns:inkscape="http://www.inkscape.org/namespaces/inkscape"
   version="1.1"
   id="Layer_1"
   x="0px"
   y="0px"
   width="100px"
   height="100px"
   viewBox="5.0 -10.0 100.0 135.0"
   enable-background="new 0 0 100 100"
   xml:space="preserve"
   inkscape:version="0.48.5 r10040"
   sodipodi:docname="christmastree-off.svg"><metadata
     id="metadata19"><rdf:RDF><cc:Work
         rdf:about=""><dc:format>image/svg+xml</dc:format><dc:type
           rdf:resource="http://purl.org/dc/dcmitype/StillImage" /></cc:Work></rdf:RDF></metadata><defs
     id="defs17" /><sodipodi:namedview
     pagecolor="#ffffff"
     bordercolor="#666666"
     borderopacity="1"
     objecttolerance="10"
     gridtolerance="10"
     guidetolerance="10"
     inkscape:pageopacity="0"
     inkscape:pageshadow="2"
     inkscape:window-width="1111"
     inkscape:window-height="726"
     id="namedview15"
     showgrid="false"
     inkscape:zoom="2.36"
     inkscape:cx="-21.398305"
     inkscape:cy="50"
     inkscape:window-x="0"
     inkscape:window-y="0"
     inkscape:window-maximized="0"
     inkscape:current-layer="Layer_1" /><polygon
     points="61.432,9.357 56.351,14.31 57.552,21.305 51.27,18.002 44.988,21.305 46.188,14.31 41.106,9.357 48.128,8.336 51.27,1.973 54.41,8.336 "
     id="polygon3"
     transform="matrix(1.3,0,0,1.3,-15.38085,-8.33835)" /><path
     d="m 68.50945,45.54925 -9.5277,-24.6467 c -2.5259,0.1625 -5.1207,0.247 -7.7649,0.247 -2.6,0 -5.1532,-0.0832 -7.644,-0.2418 l -9.5303,24.6584 c 5.3326,0.8099 11.1241,1.2545 17.1743,1.2545 6.097,0.0013 11.9249,-0.4498 17.2926,-1.2714 z m -12.7153,-9.0376 c 1.3455,0 2.4375,1.0907 2.4375,2.4375 0,1.3468 -1.092,2.4375 -2.4375,2.4375 -1.3455,0 -2.4375,-1.0907 -2.4375,-2.4375 0,-1.3468 1.092,-2.4375 2.4375,-2.4375 z m -9.1,-8.2056 c 0,-1.6601 1.3455,-3.0056 3.0056,-3.0056 1.6601,0 3.0056,1.3455 3.0056,3.0056 0,1.6601 -1.3442,3.0056 -3.0056,3.0056 -1.6614,0 -3.0056,-1.3455 -3.0056,-3.0056 z"
     id="path5"
     inkscape:connector-curvature="0" /><path
     d="m 78.98095,72.63735 -9.1468,-23.6613 c -5.7278,0.9555 -12.012,1.4898 -18.616,1.4898 -6.5572,0 -12.8024,-0.5265 -18.5003,-1.4703 l -9.1507,23.6717 c 7.8234,2.1879 17.3589,3.4723 27.651,3.4723 10.3415,-0.0013 19.9173,-1.2974 27.7628,-3.5022 z m -12.5424,-7.8052 c 1.6601,0 3.0056,1.3455 3.0056,3.0056 0,1.6601 -1.3455,3.0056 -3.0056,3.0056 -1.6601,0 -3.0056,-1.3455 -3.0056,-3.0056 0,-1.6601 1.3442,-3.0056 3.0056,-3.0056 z m -10.6444,-6.6625 c 1.3455,0 2.4375,1.092 2.4375,2.4375 0,1.3455 -1.092,2.4375 -2.4375,2.4375 -1.3455,0 -2.4375,-1.092 -2.4375,-2.4375 0,-1.3455 1.092,-2.4375 2.4375,-2.4375 z m -17.1691,12.675 c -1.6601,0 -3.0056,-1.3455 -3.0056,-3.0056 0,-1.6601 1.3455,-3.0056 3.0056,-3.0056 1.6601,0 3.0056,1.3455 3.0056,3.0056 0,1.6601 -1.3442,3.0056 -3.0056,3.0056 z m 1.8694,-12.675 c -1.3455,0 -2.4375,-1.0907 -2.4375,-2.4375 0,-1.3468 1.092,-2.4375 2.4375,-2.4375 1.3455,0 2.4375,1.092 2.4375,2.4375 0,1.3455 -1.092,2.4375 -2.4375,2.4375 z"
     id="path7"
     inkscape:connector-curvature="0" /><path
     d="m 80.38885,76.28385 c -8.0951,2.4557 -18.1987,3.9182 -29.1707,3.9182 -10.9213,0 -20.9833,-1.4495 -29.0615,-3.8844 l -8.6294,22.3249 c 6.9706,3.4853 16.9442,5.9748 28.3595,6.8653 v 14.3546 h 18.7681 v -14.3637 c 11.4283,-0.9035 21.4032,-3.4086 28.3569,-6.9069 l -8.6229,-22.308 z m -53.1947,9.6278 c -1.3455,0 -2.4375,-1.092 -2.4375,-2.4375 0,-1.3455 1.092,-2.4375 2.4375,-2.4375 1.3455,0 2.4375,1.092 2.4375,2.4375 0,1.3455 -1.092,2.4375 -2.4375,2.4375 z m 5.4444,13.7306 c -1.6601,0 -3.0056,-1.3455 -3.0056,-3.0056 0,-1.6601 1.3455,-3.0056 3.0056,-3.0056 1.6601,0 3.0056,1.3455 3.0056,3.0056 0,1.6601 -1.3455,3.0056 -3.0056,3.0056 z m 15.4362,-8.8556 c -1.3455,0 -2.4375,-1.092 -2.4375,-2.4375 0,-1.3455 1.092,-2.4375 2.4375,-2.4375 1.3455,0 2.4375,1.092 2.4375,2.4375 0,1.3455 -1.0907,2.4375 -2.4375,2.4375 z m 13.1638,8.8556 c -1.6601,0 -3.0056,-1.3455 -3.0056,-3.0056 0,-1.6601 1.3455,-3.0056 3.0056,-3.0056 1.6601,0 3.0056,1.3455 3.0056,3.0056 0,1.6601 -1.3455,3.0056 -3.0056,3.0056 z m 15.3049,-7.4204 c -1.3455,0 -2.4375,-1.092 -2.4375,-2.4375 0,-1.3455 1.092,-2.4375 2.4375,-2.4375 1.3455,0 2.4375,1.092 2.4375,2.4375 0,1.3455 -1.092,2.4375 -2.4375,2.4375 z"
     id="path9"
     inkscape:connector-curvature="0" /><path
     style="fill:#008000"
     d="m 42.584829,112.30024 0,-6.91015 -8.168441,-1.2901 c -7.813844,-1.2341 -18.096967,-4.164763 -19.485537,-5.553334 -0.578305,-0.578307 6.249503,-19.801486 7.488498,-21.083292 0.252402,-0.261123 3.47067,0.201981 7.151707,1.029123 5.458298,1.226496 9.436131,1.510615 21.565679,1.540343 14.292904,0.03503 17.015706,-0.245325 27.143009,-2.794764 1.79367,-0.451539 2.005277,-0.09031 6.011644,10.262255 L 88.443923,98.23059 85.95624,99.416882 C 82.510389,101.06009 73.555342,103.3334 66.416039,104.3773 l -5.983754,0.87494 0,6.97907 0,6.97907 -8.923729,0 -8.923727,0 0,-6.91014 z m -7.58517,-13.31698 c 1.232786,-1.232786 1.118184,-3.943617 -0.213436,-5.048765 -1.677024,-1.391806 -4.739908,-0.30724 -5.286881,1.872078 -0.266104,1.060241 -0.07231,2.332046 0.451551,2.963251 1.105148,1.331626 3.81598,1.446226 5.048766,0.213436 z m 29.177535,-0.644782 c 1.651611,-3.086062 -2.651693,-6.695044 -5.083468,-4.263268 -1.173272,1.173271 -1.147658,4.829828 0.03719,5.307922 2.124874,0.857408 4.265494,0.414266 5.046285,-1.044654 z m 14.474371,-8.502039 c 0,-1.980777 -0.249013,-2.230933 -2.220747,-2.230933 -1.551088,0 -2.298845,0.405526 -2.479736,1.344816 -0.464527,2.412098 0.477067,3.602845 2.651233,3.352762 1.728801,-0.198854 2.04925,-0.584573 2.04925,-2.466645 z M 50.39309,88.34915 c 0,-1.980777 -0.249013,-2.230931 -2.220747,-2.230931 -1.551088,0 -2.298844,0.405526 -2.479736,1.344814 -0.464527,2.412098 0.477067,3.602845 2.651235,3.352762 1.728799,-0.198853 2.049248,-0.584572 2.049248,-2.466645 z M 29.050506,85.597666 c 2.114701,-2.114699 0.0461,-5.596479 -2.790161,-4.696283 -1.06543,0.338155 -1.522975,1.119935 -1.522975,2.602223 0,2.735016 2.472004,3.935194 4.313136,2.09406 z"
     id="path2996"
     inkscape:connector-curvature="0" /><path
     style="fill:#008000"
     d="m 42.584829,75.303333 c -7.394595,-0.57441 -16.153071,-1.983699 -17.542812,-2.822742 -0.539524,-0.325733 0.645584,-4.228308 3.512289,-11.56601 2.379611,-6.090919 4.429046,-11.176879 4.554298,-11.302131 0.125255,-0.125255 2.726944,0.127009 5.781534,0.560568 4.623023,0.656189 20.940404,0.478499 28.913402,-0.314854 1.659072,-0.165093 2.120254,0.657507 6.135064,10.942905 2.387627,6.116776 4.34114,11.207134 4.34114,11.311909 0,0.378087 -5.685791,1.629374 -10.782839,2.373008 -7.752931,1.131111 -16.97694,1.433743 -24.912076,0.817347 z M 41.3898,69.697228 c 1.473043,-3.838689 -1.224184,-6.538706 -4.43217,-4.436753 -3.15896,2.06983 -1.910265,5.61304 1.978145,5.61304 1.140143,0 2.197044,-0.506604 2.454025,-1.176287 z m 27.966215,-0.311002 c 1.530153,-2.859116 -1.640573,-5.971774 -4.515736,-4.433034 -1.400022,0.74927 -2.020916,4.341296 -0.937655,5.42456 1.107781,1.107778 4.677203,0.458794 5.453391,-0.991526 z M 58.055312,60.745568 c 0.172376,-1.770904 -0.110513,-2.407631 -1.195756,-2.691426 -3.062926,-0.800974 -5.113694,2.348204 -2.942841,4.519056 1.684513,1.684512 3.891619,0.709842 4.138597,-1.82763 l 0,0 z M 43.098338,57.01502 c 0.593053,-1.54547 -0.639557,-3.537569 -2.403174,-3.883917 -1.904691,-0.374053 -3.469695,1.936192 -2.517223,3.715901 0.919548,1.718192 4.281486,1.832992 4.920397,0.168023 z"
     id="path2998"
     inkscape:connector-curvature="0" /><path
     style="fill:#008000"
     d="m 38.021239,45.709868 -3.448122,-0.492074 4.647979,-11.898305 4.647977,-11.898305 7.405673,-0.05544 7.405674,-0.05544 4.611873,11.874062 c 2.536531,6.530732 4.452851,12.033085 4.258486,12.22745 -0.577605,0.577606 -25.787596,0.832073 -29.52954,0.298067 z m 20.034239,-6.532213 c 0.258285,-2.654222 -1.305477,-3.724958 -3.626216,-2.482937 -2.695471,1.442573 -1.171246,5.460061 1.904296,5.019265 1.072576,-0.153721 1.559922,-0.871572 1.72192,-2.536328 z m -5.952007,-8.609649 c 2.403817,-2.403815 -0.292802,-6.468583 -3.595853,-5.420235 -1.812642,0.575311 -2.689312,3.717026 -1.452911,5.206799 1.105148,1.331622 3.815979,1.446221 5.048764,0.213436 z"
     id="path3000"
     inkscape:connector-curvature="0" /><path
     style="fill:#808080"
     d="m 44.431222,13.722484 0.505138,-4.3523038 -3.115,-2.6663241 -3.115001,-2.6663241 4.428955,-0.5010789 4.428957,-0.5010805 1.868148,-3.8154525 1.868152,-3.8154551 1.930123,3.8089142 c 1.906533,3.7623637 1.981623,3.8153489 6.144286,4.3354379 l 4.214164,0.5265246 -3.071608,3.1297424 c -3.055632,3.1134609 -3.068029,3.1488999 -2.38346,6.8132239 0.378483,2.025918 0.580882,3.790755 0.449777,3.92186 -0.131099,0.131099 -1.596031,-0.454252 -3.255388,-1.300794 -3.74888,-1.912535 -5.087196,-1.921312 -7.90995,-0.05188 -1.227014,0.81262 -2.51477,1.479696 -2.861682,1.482389 -0.346911,0.0026 -0.403436,-1.953636 -0.125606,-4.347402 z"
     id="path3002"
     inkscape:connector-curvature="0" /></svg>