<?xml version="1.0" encoding="UTF-8" standalone="no"?>
<svg
   xmlns:dc="http://purl.org/dc/elements/1.1/"
   xmlns:cc="http://creativecommons.org/ns#"
   xmlns:rdf="http://www.w3.org/1999/02/22-rdf-syntax-ns#"
   xmlns:svg="http://www.w3.org/2000/svg"
   xmlns="http://www.w3.org/2000/svg"
   xmlns:sodipodi="http://sodipodi.sourceforge.net/DTD/sodipodi-0.dtd"
   xmlns:inkscape="http://www.inkscape.org/namespaces/inkscape"
   version="1.1"
   x="0px"
   y="0px"
   width="100px"
   height="100px"
   viewBox="0 0 100 100"
   enable-background="new 0 0 100 100"
   xml:space="preserve"
   id="svg2"
   inkscape:version="0.48.5 r10040"
   sodipodi:docname="dehumidifier-on.svg"><metadata
     id="metadata12"><rdf:RDF><cc:Work
         rdf:about=""><dc:format>image/svg+xml</dc:format><dc:type
           rdf:resource="http://purl.org/dc/dcmitype/StillImage" /></cc:Work></rdf:RDF></metadata><defs
     id="defs10" /><sodipodi:namedview
     pagecolor="#ffffff"
     bordercolor="#666666"
     borderopacity="1"
     objecttolerance="10"
     gridtolerance="10"
     guidetolerance="10"
     inkscape:pageopacity="0"
     inkscape:pageshadow="2"
     inkscape:window-width="946"
     inkscape:window-height="725"
     id="namedview8"
     showgrid="false"
     inkscape:zoom="2.36"
     inkscape:cx="50"
     inkscape:cy="50"
     inkscape:window-x="0"
     inkscape:window-y="0"
     inkscape:window-maximized="0"
     inkscape:current-layer="svg2" /><g
     id="Captions" /><g
     id="Your_Icon"><path
       d="M85,15H15C8.373,15,3,20.373,3,27v45c0,6.627,5.373,12,12,12h70c6.627,0,12-5.373,12-12V27C97,20.373,91.627,15,85,15z    M9,28h25.115c-0.236,0.944-0.381,2.032-0.381,3.309c0,0.557,0.028,1.122,0.077,1.691H9V28z M9,35h25.07   c0.343,2.029,0.926,4.066,1.61,6H9V35z M42.865,43.907c0.024-0.314,0.043-0.604,0.065-0.907h5.539   c-0.886,0.716-1.728,1.447-2.512,2.166C45.048,44.538,43.999,44.103,42.865,43.907z M37.296,45.041   c-0.887,0.575-1.651,1.32-2.24,2.197C29.605,44.999,25.673,43.717,22.76,43h13.675C36.717,43.702,37.005,44.391,37.296,45.041z    M9,43h5.722c-1.234,1.284-1.601,3.793,0.3,6H9V43z M9,51h8.638c0.678,0.355,1.452,0.683,2.342,0.968   c4.291,1.375,9.552,1.288,13.858,0.829c0.188,1.195,0.642,2.303,1.308,3.252c-0.273,0.327-0.525,0.637-0.784,0.951H9V51z    M53.835,71H35.7c1.022-1.506,1.872-3.215,2.575-5h11.102C51.188,68.35,52.646,69.916,53.835,71z M39.004,64   c0.526-1.595,0.95-3.202,1.29-4.729c0.404,0.065,0.815,0.108,1.237,0.108c0.828,0,1.62-0.14,2.368-0.38h0.604   c1.239,1.928,2.361,3.574,3.388,5H39.004z M9,59h23.746c-1.505,1.905-2.715,3.558-3.694,5H9V59z M9,66h18.756   c-1.334,2.173-2.055,3.767-2.487,5H9V66z M73,78H15c-2.967,0-5.431-2.167-5.91-5h15.969c0.67,2.466,4.828,4.46,9.059,0H73V78z    M73,71H60.322c0.712-1.194,0.962-2.898,0.235-5H73V71z M73,64H59.624c-0.276-0.472-0.596-0.957-0.969-1.458   c-0.94-1.261-2.082-2.443-3.328-3.542H73V64z M73,57H52.833c-1.326-0.972-2.698-1.854-4.024-2.637   c0.331-0.864,0.521-1.799,0.521-2.781c0-0.196-0.012-0.39-0.028-0.582H73V57z M73,49H53.704c7.29-2.216,10.45-4.043,12.227-5.401   c0.219-0.167,0.4-0.372,0.548-0.599H73V49z M73,41h-6.092c-0.279-2.548-3.291-5.401-9.582-3.239   c-2.119,0.729-4.215,1.893-6.178,3.239h-8.087c0.133-2.291,0.192-4.285,0.188-6H73V41z M73,33H43.211   c-0.07-2.082-0.237-3.708-0.454-5H73V33z M73,26H42.329c-0.091-0.337-0.185-0.648-0.278-0.929   c-0.783-2.349-5.102-2.925-7.188,0.929H9.09c0.479-2.833,2.942-5,5.91-5h58V26z M80,72c-1.104,0-2-0.896-2-2s0.896-2,2-2   s2,0.896,2,2S81.104,72,80,72z M87,72c-1.104,0-2-0.896-2-2s0.896-2,2-2s2,0.896,2,2S88.104,72,87,72z"
       id="path6" /></g><path
     style="fill:#008000"
     d="m 13.579257,77.582153 c -1.219192,-0.234728 -3.9182401,-2.763 -3.9182401,-3.670321 0,-0.613938 0.8569131,-0.691493 7.6404171,-0.691493 6.48231,0 7.678299,0.09872 7.890331,0.651265 0.350133,0.912432 2.399893,1.891108 3.960777,1.891108 1.449588,0 3.362685,-0.852947 4.214101,-1.878841 0.485158,-0.584579 2.863776,-0.663532 19.990323,-0.663532 l 19.439644,0 0,2.330508 0,2.330509 -29.131356,-0.0577 C 27.643008,77.791914 14.10431,77.68324 13.579257,77.582153 z"
     id="path2989"
     inkscape:connector-curvature="0" /><path
     style="fill:#008000"
     d="m 36.448182,70.360169 c 0.08958,-0.174788 0.593568,-1.229128 1.119977,-2.342978 l 0.957106,-2.025183 5.323281,0.118403 5.323281,0.118403 1.909702,2.224576 1.909702,2.224576 -8.35296,0 c -4.594128,0 -8.279668,-0.143008 -8.190089,-0.317797 z"
     id="path2991"
     inkscape:connector-curvature="0" /><path
     style="fill:#008000"
     d="m 58.074254,61.566182 -1.798627,-2.328894 8.260492,0 8.260491,0 0,2.330509 0,2.330508 -6.461864,-0.0016 -6.461865,-0.0016 -1.798627,-2.328894 z"
     id="path2993"
     inkscape:connector-curvature="0" /><path
     style="fill:#008000"
     d="m 61.083098,68.347458 -0.03369,-2.330509 5.873599,0 5.8736,0 0,2.330509 0,2.330508 -5.839913,0 -5.839912,0 -0.03369,-2.330508 z"
     id="path2995"
     inkscape:connector-curvature="0" /><path
     style="fill:#008000"
     d="m 39.463719,63.292803 c 0.127794,-0.333027 0.355662,-1.262801 0.506374,-2.066164 0.255564,-1.36227 0.407085,-1.479224 2.249422,-1.736253 2.138971,-0.298412 2.622079,0.04168 4.446528,3.130229 l 0.75475,1.27769 -4.094714,0 c -3.375221,0 -4.053886,-0.106394 -3.86236,-0.605502 z"
     id="path2997"
     inkscape:connector-curvature="0" /><path
     style="fill:#008000"
     d="m 9.2372881,61.567797 0,-2.330509 11.4586829,0 11.458683,0 -1.606988,2.314431 -1.606988,2.314431 -9.851695,0.01608 -9.8516949,0.01608 0,-2.330508 z"
     id="path2999"
     inkscape:connector-curvature="0" /><path
     style="fill:#008000"
     d="m 9.2372881,68.347458 0,-2.330509 9.0982229,0 9.098224,0 -1.153308,2.326168 -1.153308,2.326167 -7.944916,0.0043 -7.9449149,0.0043 0,-2.330508 z"
     id="path3001"
     inkscape:connector-curvature="0" /><path
     style="fill:#008000"
     d="m 9.2372881,53.940678 0,-2.754237 4.0387899,0 c 3.039138,0 4.690972,0.226138 6.673729,0.91364 2.145982,0.7441 3.669296,0.921017 8.208991,0.95339 l 5.574052,0.03975 0.445881,1.447035 c 0.245233,0.795869 0.347478,1.606251 0.227211,1.800848 -0.120267,0.194597 -5.832415,0.353812 -12.693661,0.353812 l -12.4749929,0 0,-2.754237 z"
     id="path3003"
     inkscape:connector-curvature="0" /><path
     style="fill:#008000"
     d="m 29.576271,45.008541 -4.872881,-1.83626 5.797717,-0.01834 c 5.512519,-0.01744 5.811511,0.02512 6.078131,0.865163 0.19349,0.609632 -0.01758,1.200707 -0.680901,1.906779 -0.528723,0.562801 -1.071086,0.999795 -1.20525,0.971098 -0.134164,-0.0287 -2.436731,-0.878493 -5.116816,-1.888436 z"
     id="path3005"
     inkscape:connector-curvature="0" /><path
     style="fill:#008000"
     d="m 9.2372881,37.838983 0,-2.754237 12.2718039,0 12.271803,0 0.416585,1.588983 c 0.229121,0.87394 0.543159,2.113347 0.697861,2.754237 l 0.281276,1.165254 -12.969664,0 -12.9696649,0 0,-2.754237 z"
     id="path3007"
     inkscape:connector-curvature="0" /><path
     style="fill:#008000"
     d="m 9.2372881,45.889831 0,-2.754238 2.5572809,0 c 2.472266,0 2.541338,0.02979 2.077693,0.896119 -0.47584,0.889115 -0.386018,2.44605 0.223314,3.87083 0.282212,0.659886 0.03223,0.741526 -2.270581,0.741526 l -2.5877069,0 0,-2.754237 z"
     id="path3009"
     inkscape:connector-curvature="0" /><path
     style="fill:#008000"
     d="m 9.2372881,30.635593 0,-2.330508 12.3411019,0 12.341102,0 -0.264831,1.324152 c -0.145657,0.728284 -0.26483,1.777013 -0.26483,2.330509 l 0,1.006356 -12.076272,0 -12.0762709,0 0,-2.330509 z"
     id="path3011"
     inkscape:connector-curvature="0" /><path
     style="fill:#008000"
     d="m 9.6610169,25.071219 c 0,-1.034986 2.7094061,-3.388524 4.2572691,-3.698097 0.746426,-0.149285 14.299405,-0.271427 30.117731,-0.271427 l 28.760593,0 0,2.330508 0,2.330509 -15.254237,0 c -12.495607,0 -15.254237,-0.103067 -15.254237,-0.56992 0,-1.069618 -1.511636,-1.972453 -3.302519,-1.972453 -1.343268,0 -2.090971,0.296972 -3.20054,1.271186 l -1.447802,1.271187 -12.338129,0 c -11.128029,0 -12.3381291,-0.06782 -12.3381291,-0.691493 z"
     id="path3013"
     inkscape:connector-curvature="0" /><path
     style="fill:#008000"
     d="m 43.392792,32.295853 c -0.141459,-0.368637 -0.257199,-1.417366 -0.257199,-2.330509 l 0,-1.660259 14.830509,0 14.830508,0 0,2.330508 0,2.330509 -14.57331,0 c -12.898066,0 -14.602875,-0.07705 -14.830508,-0.670249 z"
     id="path3015"
     inkscape:connector-curvature="0" /><path
     style="fill:#008000"
     d="M 43.287353,39.004237 C 43.431806,38.130297 43.552094,36.89089 43.554659,36.25 l 0.0047,-1.165254 14.618644,0 14.618644,0 0,2.754237 0,2.754237 -2.865624,0 c -2.554598,0 -2.911021,-0.102348 -3.283898,-0.942981 -0.230051,-0.51864 -1.085647,-1.395224 -1.901325,-1.947966 -2.241216,-1.518751 -5.673765,-1.135996 -10.281237,1.146435 -3.366713,1.66779 -3.69571,1.744512 -7.480704,1.744512 l -3.959112,0 0.262643,-1.588983 z"
     id="path3017"
     inkscape:connector-curvature="0" /><path
     style="fill:#008000"
     d="m 59.661017,47.15175 c 1.980932,-0.812246 4.417651,-2.048164 5.41493,-2.746484 1.593159,-1.115569 2.171736,-1.269673 4.76695,-1.269673 l 2.953713,0 0,2.754238 0,2.754237 -8.368644,-0.0078 -8.368644,-0.0078 3.601695,-1.476811 z"
     id="path3019"
     inkscape:connector-curvature="0" /><path
     style="fill:#008000"
     d="m 50.878892,55.493133 c -1.046542,-0.659701 -1.706821,-1.36322 -1.588983,-1.693043 0.110889,-0.310374 0.201616,-1.025417 0.201616,-1.588983 l 0,-1.024666 11.652543,0 11.652542,0 0,2.754237 0,2.754237 -10.063559,-0.03653 -10.063559,-0.03653 -1.7906,-1.128726 z"
     id="path3021"
     inkscape:connector-curvature="0" /><path
     style="fill:#008000"
     d=""
     id="path3023"
     inkscape:connector-curvature="0" /><path
     style="fill:#008000"
     d="m 44.512712,44.22291 c -2.068363,-0.623475 -1.661653,-1.087317 0.95339,-1.087317 1.281779,0 2.330508,0.07341 2.330508,0.163132 0,0.08972 -0.429025,0.427768 -0.95339,0.751213 -0.711943,0.43915 -1.302146,0.482955 -2.330508,0.172972 z"
     id="path3025"
     inkscape:connector-curvature="0" /></svg>