<?xml version="1.0" encoding="UTF-8" standalone="no"?>
<svg
   xmlns:dc="http://purl.org/dc/elements/1.1/"
   xmlns:cc="http://creativecommons.org/ns#"
   xmlns:rdf="http://www.w3.org/1999/02/22-rdf-syntax-ns#"
   xmlns:svg="http://www.w3.org/2000/svg"
   xmlns="http://www.w3.org/2000/svg"
   xmlns:sodipodi="http://sodipodi.sourceforge.net/DTD/sodipodi-0.dtd"
   xmlns:inkscape="http://www.inkscape.org/namespaces/inkscape"
   version="1.1"
   x="0px"
   y="0px"
   width="100px"
   height="100px"
   viewBox="0 0 100 100"
   enable-background="new 0 0 100 100"
   xml:space="preserve"
   id="svg2"
   inkscape:version="0.48.5 r10040"
   sodipodi:docname="dehumidifier-off.svg"><metadata
     id="metadata12"><rdf:RDF><cc:Work
         rdf:about=""><dc:format>image/svg+xml</dc:format><dc:type
           rdf:resource="http://purl.org/dc/dcmitype/StillImage" /><dc:title /></cc:Work></rdf:RDF></metadata><defs
     id="defs10" /><sodipodi:namedview
     pagecolor="#ffffff"
     bordercolor="#666666"
     borderopacity="1"
     objecttolerance="10"
     gridtolerance="10"
     guidetolerance="10"
     inkscape:pageopacity="0"
     inkscape:pageshadow="2"
     inkscape:window-width="946"
     inkscape:window-height="725"
     id="namedview8"
     showgrid="false"
     inkscape:zoom="8.2005863"
     inkscape:cx="50"
     inkscape:cy="50"
     inkscape:window-x="1440"
     inkscape:window-y="549"
     inkscape:window-maximized="0"
     inkscape:current-layer="svg2" /><g
     id="Captions" /><g
     id="Your_Icon"><path
       d="M85,15H15C8.373,15,3,20.373,3,27v45c0,6.627,5.373,12,12,12h70c6.627,0,12-5.373,12-12V27C97,20.373,91.627,15,85,15z    M9,28h25.115c-0.236,0.944-0.381,2.032-0.381,3.309c0,0.557,0.028,1.122,0.077,1.691H9V28z M9,35h25.07   c0.343,2.029,0.926,4.066,1.61,6H9V35z M42.865,43.907c0.024-0.314,0.043-0.604,0.065-0.907h5.539   c-0.886,0.716-1.728,1.447-2.512,2.166C45.048,44.538,43.999,44.103,42.865,43.907z M37.296,45.041   c-0.887,0.575-1.651,1.32-2.24,2.197C29.605,44.999,25.673,43.717,22.76,43h13.675C36.717,43.702,37.005,44.391,37.296,45.041z    M9,43h5.722c-1.234,1.284-1.601,3.793,0.3,6H9V43z M9,51h8.638c0.678,0.355,1.452,0.683,2.342,0.968   c4.291,1.375,9.552,1.288,13.858,0.829c0.188,1.195,0.642,2.303,1.308,3.252c-0.273,0.327-0.525,0.637-0.784,0.951H9V51z    M53.835,71H35.7c1.022-1.506,1.872-3.215,2.575-5h11.102C51.188,68.35,52.646,69.916,53.835,71z M39.004,64   c0.526-1.595,0.95-3.202,1.29-4.729c0.404,0.065,0.815,0.108,1.237,0.108c0.828,0,1.62-0.14,2.368-0.38h0.604   c1.239,1.928,2.361,3.574,3.388,5H39.004z M9,59h23.746c-1.505,1.905-2.715,3.558-3.694,5H9V59z M9,66h18.756   c-1.334,2.173-2.055,3.767-2.487,5H9V66z M73,78H15c-2.967,0-5.431-2.167-5.91-5h15.969c0.67,2.466,4.828,4.46,9.059,0H73V78z    M73,71H60.322c0.712-1.194,0.962-2.898,0.235-5H73V71z M73,64H59.624c-0.276-0.472-0.596-0.957-0.969-1.458   c-0.94-1.261-2.082-2.443-3.328-3.542H73V64z M73,57H52.833c-1.326-0.972-2.698-1.854-4.024-2.637   c0.331-0.864,0.521-1.799,0.521-2.781c0-0.196-0.012-0.39-0.028-0.582H73V57z M73,49H53.704c7.29-2.216,10.45-4.043,12.227-5.401   c0.219-0.167,0.4-0.372,0.548-0.599H73V49z M73,41h-6.092c-0.279-2.548-3.291-5.401-9.582-3.239   c-2.119,0.729-4.215,1.893-6.178,3.239h-8.087c0.133-2.291,0.192-4.285,0.188-6H73V41z M73,33H43.211   c-0.07-2.082-0.237-3.708-0.454-5H73V33z M73,26H42.329c-0.091-0.337-0.185-0.648-0.278-0.929   c-0.783-2.349-5.102-2.925-7.188,0.929H9.09c0.479-2.833,2.942-5,5.91-5h58V26z M80,72c-1.104,0-2-0.896-2-2s0.896-2,2-2   s2,0.896,2,2S81.104,72,80,72z M87,72c-1.104,0-2-0.896-2-2s0.896-2,2-2s2,0.896,2,2S88.104,72,87,72z"
       id="path6" /></g><path
     style="fill:#008000"
     d=""
     id="path3023"
     inkscape:connector-curvature="0" /><path
     style="fill:#cccccc"
     d=""
     id="path3044"
     inkscape:connector-curvature="0" /><path
     style="fill:#cccccc"
     d=""
     id="path3050"
     inkscape:connector-curvature="0" /><path
     style="fill:#cccccc"
     d=""
     id="path3052"
     inkscape:connector-curvature="0" /><path
     style="fill:#cccccc"
     d=""
     id="path3054"
     inkscape:connector-curvature="0" /><path
     style="fill:#cccccc"
     d=""
     id="path3056"
     inkscape:connector-curvature="0" /><path
     style="fill:#cccccc"
     d=""
     id="path3058"
     inkscape:connector-curvature="0" /><path
     style="fill:#cccccc"
     d=""
     id="path3066"
     inkscape:connector-curvature="0" /><path
     style="fill:#cccccc"
     d="m 69.359045,43.236192 c -0.333582,-0.04035 -0.186862,-0.05673 0.596551,-0.06662 0.571416,-0.0072 1.023856,-3.8e-5 1.005424,0.01594 -0.0753,0.06526 -1.189847,0.100521 -1.601975,0.05068 z"
     id="path3096"
     inkscape:connector-curvature="0" /><path
     style="fill:#cccccc"
     d=""
     id="path3112"
     inkscape:connector-curvature="0" /><path
     style="fill:#cccccc"
     d=""
     id="path3116"
     inkscape:connector-curvature="0" /><path
     style="fill:#cccccc"
     d=""
     id="path3128"
     inkscape:connector-curvature="0" /><path
     style="fill:#cccccc"
     d="M 13.504051,77.724295 C 11.548832,77.18493 9.9102328,75.55258 9.3047393,73.541 l -0.155997,-0.518256 7.9126917,0 7.912692,0 0.169295,0.405182 c 0.09311,0.22285 0.352181,0.613475 0.575705,0.868056 1.802286,2.052689 5.086387,1.81164 7.721625,-0.566759 l 0.78277,-0.706479 19.33864,0 19.338641,0 0,2.43885 0,2.43885 -29.418629,-0.0109 c -23.326324,-0.0086 -29.534494,-0.04287 -29.978122,-0.165245 z"
     id="path3132"
     inkscape:connector-curvature="0" /><path
     style="fill:#cccccc"
     d="m 13.066408,70.980252 c 2.268446,-0.01859 5.945012,-0.01858 8.170147,2.3e-5 2.225135,0.0186 0.369134,0.03381 -4.124447,0.0338 -4.493582,-1.3e-5 -6.314146,-0.01523 -4.0457,-0.03382 z"
     id="path3134"
     inkscape:connector-curvature="0" /><path
     style="fill:#cccccc"
     d="m 9.0029313,68.510872 0,-2.43885 9.2676297,0 c 5.097197,0 9.266366,0.04115 9.26482,0.09146 -0.0015,0.0503 -0.2753,0.556388 -0.608343,1.124636 -0.511546,0.872811 -1.36178,2.676736 -1.625227,3.448208 -0.06842,0.200369 -0.568263,0.2134 -8.185876,0.2134 l -8.1130037,0 0,-2.43885 z"
     id="path3136"
     inkscape:connector-curvature="0" /><path
     style="fill:#cccccc"
     d="m 9.0029313,61.499178 0,-2.499821 11.8316487,0 11.83165,0 -0.922716,1.188939 c -0.507494,0.653917 -1.339425,1.778836 -1.848736,2.499821 l -0.926019,1.310882 -9.982914,0 -9.9829137,0 0,-2.499821 z"
     id="path3138"
     inkscape:connector-curvature="0" /><path
     style="fill:#cccccc"
     d="m 9.0029313,53.996764 0,-2.92957 4.4204157,0.03673 4.420416,0.03673 1.036511,0.446136 c 1.233848,0.531074 2.955848,0.982651 4.8777,1.279128 1.149485,0.177326 2.039971,0.210457 4.938671,0.183741 1.944983,-0.01793 3.886481,-0.04471 4.31444,-0.05952 l 0.778108,-0.02693 0.171877,0.670684 c 0.09453,0.368876 0.368246,1.068501 0.608253,1.554722 l 0.436376,0.884038 -0.325569,0.426844 -0.32557,0.426843 -12.675814,0 -12.6758147,0 0,-2.92957 z"
     id="path3140"
     inkscape:connector-curvature="0" /><path
     style="fill:#cccccc"
     d="m 9.0029313,46.01248 0,-2.987591 2.8010027,0 2.801002,0 -0.303876,0.447787 c -0.906369,1.335609 -0.851136,3.340285 0.132295,4.801658 0.232549,0.345567 0.422816,0.650226 0.422816,0.67702 0,0.02679 -1.316979,0.04872 -2.92662,0.04872 l -2.9266197,0 0,-2.987591 z"
     id="path3142"
     inkscape:connector-curvature="0" /><path
     style="fill:#cccccc"
     d="m 32.708383,46.237417 c -2.038995,-0.804761 -7.089651,-2.541653 -8.767495,-3.015092 -0.545297,-0.153867 0.07953,-0.173217 5.914211,-0.183148 l 6.523924,-0.01111 0.412654,0.981995 c 0.228723,0.544292 0.364606,1.023091 0.304857,1.074193 -0.05929,0.05071 -0.347349,0.276212 -0.640131,0.501119 -0.292783,0.224907 -0.73734,0.668275 -0.987905,0.985264 l -0.455572,0.576342 -2.304543,-0.909568 0,0 z"
     id="path3144"
     inkscape:connector-curvature="0" /><path
     style="fill:#cccccc"
     d="m 45.582419,44.858761 c -0.355496,-0.253242 -1.712487,-0.796554 -2.295905,-0.919235 -0.379987,-0.0799 -0.403729,-0.112662 -0.334071,-0.460949 0.04124,-0.206214 0.09382,-0.393768 0.116841,-0.416788 0.02302,-0.02302 1.202815,-0.02702 2.621767,-0.0089 l 2.579913,0.03296 -0.999507,0.853598 c -1.424702,1.216722 -1.337871,1.169462 -1.689038,0.919303 z"
     id="path3146"
     inkscape:connector-curvature="0" /><path
     style="fill:#cccccc"
     d="m 39.123661,63.907542 c 5.12e-4,-0.0503 0.111009,-0.448139 0.245548,-0.884083 0.134539,-0.435944 0.356747,-1.231619 0.493794,-1.768166 0.137048,-0.536547 0.301841,-1.176875 0.366206,-1.422951 l 0.117028,-0.44741 1.083129,0.0034 c 0.626636,0.002 1.473099,-0.08851 2.008414,-0.214708 0.508906,-0.119974 0.94406,-0.194553 0.967009,-0.16573 0.02295,0.02882 0.79143,1.163607 1.707737,2.521741 l 1.666013,2.469336 -4.327905,0 c -2.380348,0 -4.327486,-0.04116 -4.326973,-0.09146 z"
     id="path3148"
     inkscape:connector-curvature="0" /><path
     style="fill:#cccccc"
     d="m 36.026054,70.61438 c 0.497247,-0.745001 1.517966,-2.678465 1.890975,-3.581917 l 0.396538,-0.960441 5.512854,0 5.512856,0 0.953456,1.188939 c 0.5244,0.653917 1.499184,1.751399 2.166185,2.43885 l 1.21273,1.249911 -8.934708,0 -8.934708,0 0.223822,-0.335342 z"
     id="path3150"
     inkscape:connector-curvature="0" /><path
     style="fill:#cccccc"
     d="m 60.527017,70.736322 c 0.599208,-1.413827 0.669514,-2.776783 0.226448,-4.38993 l -0.07536,-0.27437 6.111347,0 6.111348,0 0,2.43885 0,2.43885 -6.232114,0 c -5.888507,0 -6.227128,-0.01177 -6.141671,-0.2134 z"
     id="path3152"
     inkscape:connector-curvature="0" /><path
     style="fill:#cccccc"
     d="m 59.228306,63.236858 c -0.744253,-1.108308 -2.072744,-2.650379 -3.010024,-3.49394 l -0.816229,-0.734614 8.749374,-0.0045 8.749375,-0.0045 0,2.499821 0,2.499821 -6.580352,0 -6.580351,0 -0.511793,-0.762141 z"
     id="path3154"
     inkscape:connector-curvature="0" /><path
     style="fill:#cccccc"
     d="m 51.86572,56.245808 c -0.536547,-0.371695 -1.421834,-0.95029 -1.967305,-1.285767 l -0.991765,-0.609959 0.175406,-0.571497 c 0.09647,-0.314324 0.207927,-1.051646 0.247675,-1.638494 l 0.07227,-1.066997 11.749401,0 11.749402,0 0,2.92662 0,2.92662 -10.029771,-0.0024 -10.029771,-0.0024 -0.97554,-0.675808 0,10e-7 z"
     id="path3156"
     inkscape:connector-curvature="0" /><path
     style="fill:#cccccc"
     d="m 56.316622,48.221851 c 2.673194,-0.908528 4.466207,-1.636177 6.356874,-2.579779 1.513991,-0.755608 3.167814,-1.802969 3.633181,-2.300882 l 0.295627,-0.316301 3.149248,0 3.14925,0 0,2.987591 0,2.987591 -9.420059,-0.0058 -9.420058,-0.0058 2.255937,-0.766715 z m 14.240009,-5.041716 c -0.249733,-0.0262 -0.688726,-0.02656 -0.97554,-8.05e-4 -0.286813,0.02576 -0.08249,0.0472 0.454062,0.04764 0.536547,4.43e-4 0.771212,-0.02063 0.521478,-0.04684 l 0,0 z"
     id="path3158"
     inkscape:connector-curvature="0" /><path
     style="fill:#cccccc"
     d="m 43.188617,39.580013 c 0.04348,-0.754519 0.0793,-2.071498 0.0796,-2.92662 l 5.55e-4,-1.554767 14.816014,0 14.816014,0 0,2.92662 0,2.92662 -2.974021,0 -2.97402,0 -0.085,-0.45307 c -0.262102,-1.397126 -1.500461,-2.639759 -3.215958,-3.227057 -1.039732,-0.355951 -3.262468,-0.387198 -4.61653,-0.0649 -2.044431,0.486623 -4.654979,1.649344 -6.891949,3.06963 l -1.063759,0.675396 -3.985,0 -3.985,0 0.07905,-1.371853 z"
     id="path3160"
     inkscape:connector-curvature="0" /><path
     style="fill:#cccccc"
     d="m 43.215619,31.836665 c -0.04128,-0.586849 -0.145387,-1.684331 -0.231356,-2.43885 l -0.156308,-1.371854 15.036423,0 15.036424,0 0,2.43885 0,2.43885 -14.805067,0 -14.805068,0 -0.07505,-1.066996 z"
     id="path3162"
     inkscape:connector-curvature="0" /><path
     style="fill:#cccccc"
     d="m 9.3046218,25.495655 c 0.2408515,-1.296536 1.6540392,-3.072366 2.9794312,-3.743993 1.42284,-0.721008 -0.642708,-0.676423 31.337664,-0.676423 l 29.279085,0 0,2.439322 0,2.439323 -15.26314,-0.03096 -15.263139,-0.03096 -0.230754,-0.692272 c -0.922705,-2.768149 -5.106189,-2.678838 -6.937992,0.148115 l -0.392109,0.605128 -12.796998,0 -12.7969959,0 0.084948,-0.457284 z"
     id="path3164"
     inkscape:connector-curvature="0" /><path
     style="fill:#cccccc"
     d="m 9.0029313,30.464811 0,-2.43885 12.5150617,0 12.515061,0 -0.08338,0.457285 c -0.171032,0.937954 -0.293944,2.92141 -0.226698,3.658275 l 0.06955,0.76214 -12.394798,0 -12.3947967,0 0,-2.43885 z"
     id="path3166"
     inkscape:connector-curvature="0" /><path
     style="fill:#cccccc"
     d="m 9.0029313,38.025246 0,-2.92662 12.4967837,0 12.496783,0 0.06014,0.274371 c 0.430438,1.963576 1.096501,4.381834 1.487632,5.401104 0.0595,0.155056 -1.631451,0.177765 -13.236563,0.177765 l -13.3047797,0 0,-2.92662 z"
     id="path3168"
     inkscape:connector-curvature="0" /></svg>