<?xml version="1.0" encoding="UTF-8" standalone="no"?>
<svg
   xmlns:dc="http://purl.org/dc/elements/1.1/"
   xmlns:cc="http://creativecommons.org/ns#"
   xmlns:rdf="http://www.w3.org/1999/02/22-rdf-syntax-ns#"
   xmlns:svg="http://www.w3.org/2000/svg"
   xmlns="http://www.w3.org/2000/svg"
   xmlns:sodipodi="http://sodipodi.sourceforge.net/DTD/sodipodi-0.dtd"
   xmlns:inkscape="http://www.inkscape.org/namespaces/inkscape"
   version="1.1"
   id="Layer_1"
   x="0px"
   y="0px"
   width="100px"
   height="100px"
   viewBox="0 0 100 100"
   enable-background="new 0 0 100 100"
   xml:space="preserve"
   inkscape:version="0.48.5 r10040"
   sodipodi:docname="icon_17205.svg"><metadata
     id="metadata3316"><rdf:RDF><cc:Work
         rdf:about=""><dc:format>image/svg+xml</dc:format><dc:type
           rdf:resource="http://purl.org/dc/dcmitype/StillImage" /><dc:title></dc:title></cc:Work></rdf:RDF></metadata><defs
     id="defs3314" /><sodipodi:namedview
     pagecolor="#ffffff"
     bordercolor="#666666"
     borderopacity="1"
     objecttolerance="10"
     gridtolerance="10"
     guidetolerance="10"
     inkscape:pageopacity="0"
     inkscape:pageshadow="2"
     inkscape:window-width="1297"
     inkscape:window-height="908"
     id="namedview3312"
     showgrid="false"
     inkscape:zoom="2.36"
     inkscape:cx="50"
     inkscape:cy="50"
     inkscape:window-x="826"
     inkscape:window-y="490"
     inkscape:window-maximized="0"
     inkscape:current-layer="Layer_1" /><g
     id="g3292"><g
       id="g3294"><g
         id="g3296"><path
           d="M35.517,1.253L35.51,1.26c-0.015-0.017-0.028-0.034-0.043-0.049C31.87-2.388,21.282,2.365,11.82,11.828     S-2.395,31.877,1.201,35.476c0.017,0.015,0.034,0.027,0.051,0.044H1.25l30.713,30.712c0.011,0.011,0.019,0.025,0.032,0.036     c3.598,3.598,14.184-1.157,23.646-10.618c9.464-9.463,14.217-20.048,10.619-23.646c-0.002-0.004-0.008-0.006-0.01-0.008     l0.004-0.004L35.517,1.253z M53.778,53.787c-9.881,9.879-18.343,12.196-19.92,10.617c-0.004-0.002-0.006-0.006-0.01-0.01     c-1.558-1.604,0.768-10.05,10.627-19.909c9.86-9.859,18.306-12.188,19.911-10.63c0.004,0.004,0.008,0.008,0.011,0.011     C65.977,35.445,63.658,43.907,53.778,53.787z"
           id="path3298" /></g></g><g
       id="g3300"><path
         d="M97.551,97.557c-1.027,1.029-2.697,1.029-3.727,0l-34.46-34.462c-1.031-1.029-1.031-2.696,0-3.725    c1.029-1.028,2.696-1.028,3.726,0l34.461,34.461C98.58,94.86,98.58,96.528,97.551,97.557z"
         id="path3302" /></g><g
       id="g3304"><path
         d="M98.949,66.046c-0.788,0.785-2.018,1.016-3.062,0.481l-28.98-14.793c-1.296-0.661-1.812-2.249-1.148-3.544    c0.662-1.295,2.247-1.81,3.545-1.148l28.98,14.793c1.295,0.661,1.809,2.249,1.147,3.545C99.303,65.632,99.14,65.855,98.949,66.046    z"
         id="path3306" /></g><g
       id="g3308"><path
         d="M66.243,98.752c-0.192,0.19-0.414,0.355-0.668,0.483c-1.295,0.661-2.883,0.148-3.544-1.149l-14.794-28.98    c-0.662-1.295-0.147-2.882,1.15-3.544c1.296-0.662,2.883-0.147,3.543,1.149l14.795,28.98    C67.256,96.733,67.027,97.967,66.243,98.752z"
         id="path3310" /></g></g><path
     style="fill:#ffff00"
     d="m 33.915448,63.760846 c -1.386554,-2.5908 3.417935,-11.423588 9.891841,-18.185602 6.649028,-6.944932 16.101355,-12.620262 19.569463,-11.749822 2.545308,0.638832 0.25447,7.327911 -4.806817,14.035548 -6.161936,8.16631 -16.622919,15.966069 -22.266773,16.602213 -1.631305,0.183872 -1.96614,0.08538 -2.387714,-0.702337 z"
     id="path3318"
     inkscape:connector-curvature="0" /></svg>