<?xml version="1.0" encoding="UTF-8" standalone="no"?>
<svg
   xmlns:dc="http://purl.org/dc/elements/1.1/"
   xmlns:cc="http://creativecommons.org/ns#"
   xmlns:rdf="http://www.w3.org/1999/02/22-rdf-syntax-ns#"
   xmlns:svg="http://www.w3.org/2000/svg"
   xmlns="http://www.w3.org/2000/svg"
   xmlns:sodipodi="http://sodipodi.sourceforge.net/DTD/sodipodi-0.dtd"
   xmlns:inkscape="http://www.inkscape.org/namespaces/inkscape"
   version="1.1"
   id="Layer_1"
   x="0px"
   y="0px"
   width="100px"
   height="100px"
   viewBox="0 0 100 100"
   enable-background="new 0 0 100 100"
   xml:space="preserve"
   inkscape:version="0.48.5 r10040"
   sodipodi:docname="icon_43665.svg"><metadata
     id="metadata9"><rdf:RDF><cc:Work
         rdf:about=""><dc:format>image/svg+xml</dc:format><dc:type
           rdf:resource="http://purl.org/dc/dcmitype/StillImage" /><dc:title></dc:title></cc:Work></rdf:RDF></metadata><defs
     id="defs7" /><sodipodi:namedview
     pagecolor="#ffffff"
     bordercolor="#666666"
     borderopacity="1"
     objecttolerance="10"
     gridtolerance="10"
     guidetolerance="10"
     inkscape:pageopacity="0"
     inkscape:pageshadow="2"
     inkscape:window-width="1085"
     inkscape:window-height="749"
     id="namedview5"
     showgrid="false"
     inkscape:zoom="3.83"
     inkscape:cx="50"
     inkscape:cy="50"
     inkscape:window-x="0"
     inkscape:window-y="0"
     inkscape:window-maximized="0"
     inkscape:current-layer="Layer_1" /><path
     d="M50.003,14.634L1.736,43.189h9.085v42.177h13.566h51.225H89.18V43.414h9.084L50.003,14.863V14.634z M75.612,83.245H24.388  v-4.057h51.225V83.245z M75.612,77.068H24.388v-4.06h51.225V77.068z M75.612,70.888H24.388v-4.06h51.225V70.888z M75.612,64.709  H24.388V60.65h51.225V64.709z M75.612,58.532H24.388v-4.06h51.225V58.532z M75.612,47.934v4.416H24.388v-4.416H75.612z"
     id="path3" /><path
     style="fill:#008000"
     d="m 10.992167,64.13164 0,-21.011964 -4.2950362,-0.07159 -4.2950365,-0.07159 23.6295517,-13.968668 c 12.996252,-7.682768 23.770404,-13.929591 23.942555,-13.88183 0.172154,0.04776 10.971026,6.392409 23.997496,14.099217 l 23.684488,14.012378 -4.298065,0.07159 -4.298068,0.07159 0,20.881415 0,20.881415 -39.033942,0 -39.033943,0 0,-21.011963 z m 64.751958,17.095514 0,-2.088773 -25.718015,0 -25.718016,0 0,2.088773 0,2.088773 25.718016,0 25.718015,0 0,-2.088773 z m 0,-6.13577 0,-2.219321 -25.718015,0 -25.718016,0 0,2.219321 0,2.219321 25.718016,0 25.718015,0 0,-2.219321 z m 0,-6.266319 0,-2.219321 -25.718015,0 -25.718016,0 0,2.219321 0,2.219321 25.718016,0 25.718015,0 0,-2.219321 z m 0,-6.13577 0,-2.088773 -25.718015,0 -25.718016,0 0,2.088773 0,2.088773 25.718016,0 25.718015,0 0,-2.088773 z m 0,-6.13577 0,-2.219321 -25.718015,0 -25.718016,0 0,2.219321 0,2.219321 25.718016,0 25.718015,0 0,-2.219321 z m 0,-6.396867 0,-2.349869 -25.718015,0 -25.718016,0 0,2.349869 0,2.349869 25.718016,0 25.718015,0 0,-2.349869 z"
     id="path2986"
     inkscape:connector-curvature="0" /></svg>