<?xml version="1.0" encoding="UTF-8" standalone="no"?>
<svg
   xmlns:dc="http://purl.org/dc/elements/1.1/"
   xmlns:cc="http://creativecommons.org/ns#"
   xmlns:rdf="http://www.w3.org/1999/02/22-rdf-syntax-ns#"
   xmlns:svg="http://www.w3.org/2000/svg"
   xmlns="http://www.w3.org/2000/svg"
   xmlns:sodipodi="http://sodipodi.sourceforge.net/DTD/sodipodi-0.dtd"
   xmlns:inkscape="http://www.inkscape.org/namespaces/inkscape"
   version="1.1"
   id="Layer_1"
   x="0px"
   y="0px"
   width="100px"
   height="100px"
   viewBox="5.0 -10.0 100.0 135.0"
   enable-background="new 0 0 100 100"
   xml:space="preserve"
   inkscape:version="0.48.5 r10040"
   sodipodi:docname="lamp-on.svg"><metadata
     id="metadata13"><rdf:RDF><cc:Work
         rdf:about=""><dc:format>image/svg+xml</dc:format><dc:type
           rdf:resource="http://purl.org/dc/dcmitype/StillImage" /><dc:title></dc:title></cc:Work></rdf:RDF></metadata><defs
     id="defs11" /><sodipodi:namedview
     pagecolor="#ffffff"
     bordercolor="#666666"
     borderopacity="1"
     objecttolerance="10"
     gridtolerance="10"
     guidetolerance="10"
     inkscape:pageopacity="0"
     inkscape:pageshadow="2"
     inkscape:window-width="1204"
     inkscape:window-height="738"
     id="namedview9"
     showgrid="false"
     inkscape:zoom="4.72"
     inkscape:cx="37.648305"
     inkscape:cy="46.305819"
     inkscape:window-x="230"
     inkscape:window-y="85"
     inkscape:window-maximized="0"
     inkscape:current-layer="Layer_1" /><path
     d="M 88.814148,-2.6799142 C 88.759716,-4.758698 87.052884,-6.430538 84.962436,-6.430538 h -55.62432 c -2.089152,0 -3.79728,1.67184 -3.850416,3.7506238 l -6.439824,50.4364322 -0.01166,0.182736 c 0,2.12544 1.727568,3.854304 3.851712,3.854304 h 27.72144 V 107.31161 H 30.95034 c -2.124144,0 -3.851712,1.72886 -3.851712,3.853 v 4.5684 c 0,2.12544 1.727568,3.85431 3.851712,3.85431 h 52.399872 c 2.124144,0 3.853008,-1.72887 3.853008,-3.85431 v -4.5684 c 0,-2.12414 -1.728864,-3.853 -3.853008,-3.853 H 62.885076 V 51.793558 H 74.83938 V 67.35463 c -2.28744,0.631152 -3.970944,2.724192 -3.970944,5.208624 0,2.982096 2.424816,5.405616 5.406912,5.405616 2.982096,0 5.406912,-2.42352 5.406912,-5.405616 0,-2.484432 -1.6848,-4.576176 -3.97224,-5.208624 V 51.793558 h 13.703904 c 2.12544,0 3.851712,-1.728864 3.851712,-3.854304 L 88.814148,-2.6799142 z M 78.812916,72.561958 c 0,1.39968 -1.139184,2.538864 -2.538864,2.538864 -1.39968,0 -2.538864,-1.139184 -2.538864,-2.538864 0,-1.39968 1.139184,-2.54016 2.538864,-2.54016 1.39968,0 2.538864,1.14048 2.538864,2.54016 z m 5.522256,38.601362 v 4.5684 c 0,0.54302 -0.441936,0.98625 -0.98496,0.98625 H 30.95034 c -0.543024,0 -0.983664,-0.44323 -0.983664,-0.98625 v -4.5684 c 0,-0.54303 0.44064,-0.98626 0.983664,-0.98626 h 52.399872 c 0.543024,0 0.98496,0.44323 0.98496,0.98626 z M 60.017028,107.31161 H 53.477412 V 51.793558 h 6.539616 v 55.518052 z m 31.3956,-58.3861 H 22.887924 c -0.517104,0 -0.944784,-0.405648 -0.981072,-0.914976 l 6.435936,-50.4079202 0.01166,-0.18144 c 0,-0.543024 0.441936,-0.9849598 0.983664,-0.9849598 h 55.62432 c 0.543024,0 0.983664,0.4419358 0.983664,0.9849598 l 6.4476,50.5880642 c -0.03758,0.510624 -0.462672,0.916272 -0.981072,0.916272 z"
     id="path3"
     style="fill:#000000"
     inkscape:connector-curvature="0" /><path
     style="fill:#ffff00"
     d="M 22.560234,45.725762 C 22.795606,44.196717 24.158377,33.604593 25.588619,22.187712 27.018857,10.77083 28.371968,0.34551196 28.59553,-0.97966136 l 0.406474,-2.40940584 28.123809,0 28.123808,0 0.35974,1.6680496 c 0.348133,1.61423699 6.340712,48.5621766 6.340712,49.6753396 0,0.303341 -15.709002,0.551525 -34.908892,0.551525 l -34.908894,0 0.427947,-2.780085 z"
     id="path3009"
     inkscape:connector-curvature="0" /><path
     style="fill:#000000"
     d="m 52.437212,79.642798 0,-28.478605 3.970818,0 3.970818,0 0,28.478605 0,28.478602 -3.970818,0 -3.970818,0 0,-28.478602 z"
     id="path3032"
     inkscape:connector-curvature="0" /><path
     style="fill:#000000"
     d="m 29.761363,116.66402 c -0.287828,-0.34592 -0.523323,-2.0178 -0.523323,-3.7153 l 0,-3.08636 27.782002,0 27.782001,0 -0.239116,3.47215 -0.239115,3.47217 -27.019564,0.24313 c -14.860759,0.13373 -27.255058,-0.0399 -27.542885,-0.38579 z"
     id="path3034"
     inkscape:connector-curvature="0" /><path
     style="fill:#000000"
     d="m 73.612231,73.90363 c -0.860397,-2.226463 0.416464,-3.943431 2.932626,-3.943431 2.57586,0 3.59194,1.435709 2.682183,3.789904 -0.854773,2.211905 -4.777912,2.319177 -5.614809,0.153526 z"
     id="path3036"
     inkscape:connector-curvature="0" /></svg>