<?xml version="1.0" encoding="UTF-8" standalone="no"?>
<!-- Generator: Adobe Illustrator 15.1.0, SVG Export Plug-In . SVG Version: 6.00 Build 0)  -->

<svg
   xmlns:dc="http://purl.org/dc/elements/1.1/"
   xmlns:cc="http://creativecommons.org/ns#"
   xmlns:rdf="http://www.w3.org/1999/02/22-rdf-syntax-ns#"
   xmlns:svg="http://www.w3.org/2000/svg"
   xmlns="http://www.w3.org/2000/svg"
   xmlns:sodipodi="http://sodipodi.sourceforge.net/DTD/sodipodi-0.dtd"
   xmlns:inkscape="http://www.inkscape.org/namespaces/inkscape"
   version="1.1"
   id="Layer_1"
   x="0px"
   y="0px"
   width="67.869px"
   height="100px"
   viewBox="0 0 67.869 100"
   enable-background="new 0 0 67.869 100"
   xml:space="preserve"
   inkscape:version="0.48.5 r10040"
   sodipodi:docname="lightbulb-off.svg"><metadata
     id="metadata17"><rdf:RDF><cc:Work
         rdf:about=""><dc:format>image/svg+xml</dc:format><dc:type
           rdf:resource="http://purl.org/dc/dcmitype/StillImage" /></cc:Work></rdf:RDF></metadata><defs
     id="defs15" /><sodipodi:namedview
     pagecolor="#ffffff"
     bordercolor="#666666"
     borderopacity="1"
     objecttolerance="10"
     gridtolerance="10"
     guidetolerance="10"
     inkscape:pageopacity="0"
     inkscape:pageshadow="2"
     inkscape:window-width="1117"
     inkscape:window-height="844"
     id="namedview13"
     showgrid="false"
     inkscape:zoom="2.36"
     inkscape:cx="33.934502"
     inkscape:cy="50"
     inkscape:window-x="0"
     inkscape:window-y="0"
     inkscape:window-maximized="0"
     inkscape:current-layer="Layer_1" /><path
     d="M44.731,85.448v0.936c0,0.773-0.632,1.402-1.404,1.402H24.542c-0.772,0-1.404-0.629-1.404-1.402v-0.936  c0-0.784,0.631-1.416,1.404-1.416h18.785C44.1,84.032,44.731,84.664,44.731,85.448z"
     id="path3" /><path
     d="M44.731,79.81v0.935c0,0.783-0.632,1.415-1.404,1.415H24.542c-0.772,0-1.404-0.632-1.404-1.415V79.81  c0-0.773,0.631-1.405,1.404-1.405h18.785C44.1,78.405,44.731,79.037,44.731,79.81z"
     id="path5" /><path
     d="M26.892,95.309h14.083c0,2.807-3.755,4.691-7.041,4.691C30.647,99.999,26.892,98.116,26.892,95.309z"
     id="path7" /><path
     d="M33.935,0C15.214,0,0,15.227,0,33.958c0,11.667,5.866,22.355,15.715,28.646c0.924,0.588,1.611,2.264,2.361,4.037  c0.86,2.067,1.828,4.421,3.614,6.477c2.917,3.331,7.465,3.331,12.244,3.331c5.627,0,9.534-0.24,12.255-3.364  c1.851-2.078,2.862-4.451,3.776-6.553c0.785-1.806,1.515-3.515,2.492-4.134c9.654-6.282,15.411-16.894,15.411-28.439  C67.868,15.227,52.654,0,33.935,0z M33.77,71.135c-0.631-6.225-1.752-14.377-3.461-20.646c1.458-0.86,2.83-1.807,3.971-2.862  c0.86,0.805,1.776,1.589,2.71,2.318c0.393,0.283,0.795,0.544,1.187,0.794c-0.662,3.363-1.317,7.694-2.066,13.223  c-0.359,2.525-0.708,4.974-1.045,7.161c-0.359,0.011-0.742,0.011-1.132,0.011L33.77,71.135L33.77,71.135z M32.748,37.799  c0.064-0.141,0.544-0.403,1.654-0.403h0.067c0.532,0,1.173,0.077,1.26,0.458c0.198,0.708-0.205,2.144-1.381,3.81  C33.075,39.824,32.552,38.365,32.748,37.799z M49.562,57.946c-2.318,1.479-3.427,4.025-4.481,6.475  c-0.773,1.817-1.603,3.68-2.875,5.148c-0.643,0.719-1.579,1.12-3.067,1.327c0.303-1.979,0.585-4.156,0.9-6.378  c0.514-3.592,1.188-8.478,1.961-12.483c1.609,0.175,3.059-0.151,4.125-0.696c1.849-0.927,2.97-2.645,2.927-4.452  c-0.021-1.295-0.621-3.678-4.397-5.409c-0.849-0.392-1.773-0.337-2.59,0.109c-1.22,0.664-2.101,2.22-2.896,4.985  c-0.783-0.609-1.502-1.219-2.109-1.839c2.164-2.743,3.167-5.648,2.514-7.956c-0.599-2.144-2.591-3.319-5.235-3.363  c-3.766,0.043-4.974,1.97-5.354,3.124c-0.795,2.362,0.457,5.333,2.644,8.13c-0.74,0.653-1.6,1.317-2.58,1.948  c-1.055-2.743-2.264-4.734-3.711-5.409c-1.132-0.533-2.329-0.457-3.384,0.261c-3.505,2.264-3.701,5.562-2.384,7.651  c1.252,2.003,3.896,3.222,6.955,2.766c1.154,4.408,2.33,10.808,3.233,19.133c-2.166-0.162-3.298-0.544-4.038-1.393  c-1.242-1.403-1.992-3.254-2.733-5.028c-1.033-2.459-2.1-4.984-4.418-6.486C10.263,52.82,5.311,43.786,5.311,33.958  c0-15.792,12.853-28.635,28.624-28.635s28.613,12.842,28.613,28.635C62.548,43.709,57.693,52.655,49.562,57.946z M42.847,48.095  c0.295-1.121,0.577-2.035,0.893-2.59c1.001,0.598,1.327,1.186,1.327,1.447c0,0.272-0.282,0.599-0.729,0.816  c-0.391,0.196-0.87,0.326-1.469,0.326C42.87,48.095,42.87,48.095,42.847,48.095z M25.335,48.019  c-1.208,0.021-2.046-0.457-2.383-1.001c-0.49-0.794,0.304-1.578,0.871-2.035C24.269,45.439,24.791,46.44,25.335,48.019z"
     id="path9" /><path
     d="M44.731,91.075v0.946c0,0.773-0.632,1.404-1.404,1.404H24.542c-0.772,0-1.404-0.631-1.404-1.404v-0.946  c0-0.773,0.631-1.404,1.404-1.404h18.785C44.1,89.67,44.731,90.301,44.731,91.075z"
     id="path11" /><path
     style="fill:#e6e6e6"
     d="M 27.03537,70.235347 C 26.043133,69.843339 25.016552,68.250597 22.703013,63.513695 20.919672,59.86236 20.556582,59.41953 17.04159,56.608924 11.16696,51.911542 7.9690111,47.006419 6.33303,40.183771 2.4538792,24.006274 14.177288,7.6120149 30.902797,5.8248985 42.77603,4.5562466 54.165036,10.890577 59.360608,21.652542 c 5.944758,12.313819 2.577428,26.26753 -8.426445,34.91792 -3.224055,2.534504 -3.516288,2.909966 -6.013461,7.726131 -1.969264,3.798013 -2.937884,5.224106 -3.878738,5.71064 -0.689708,0.356661 -1.336841,0.565648 -1.438074,0.464415 -0.101233,-0.101233 0.302909,-3.404487 0.898094,-7.340567 0.595185,-3.936077 1.198345,-7.966886 1.340355,-8.957352 0.226533,-1.579983 0.390633,-1.800848 1.33801,-1.800848 1.672659,0 4.465115,-1.543618 5.276119,-2.916546 0.40275,-0.681797 0.732271,-1.957941 0.732271,-2.835873 0,-1.331677 -0.306937,-1.890336 -1.851907,-3.370676 -3.241374,-3.105784 -5.652482,-2.846314 -7.39148,0.795432 -0.94546,1.979949 -1.009733,2.027394 -1.789955,1.321302 -0.779117,-0.705091 -0.781279,-0.773742 -0.05799,-1.841828 1.873102,-2.766017 2.352608,-6.232148 1.107982,-8.009101 -2.029752,-2.897877 -8.414353,-2.911833 -9.973746,-0.0218 -0.961511,1.781974 -0.615174,4.843183 0.806731,7.130549 l 1.285828,2.068466 -1.062123,0.69593 c -0.584168,0.38276 -1.117481,0.633023 -1.185139,0.556139 -0.06766,-0.07688 -0.50752,-0.902501 -0.977469,-1.834705 -1.175857,-2.332458 -2.415614,-3.347457 -4.088711,-3.347457 -1.737512,0 -3.414984,1.05858 -4.501684,2.840819 -2.279909,3.73916 0.47123,8.340045 4.989386,8.344037 2.001249,0.0017 1.75676,-0.428441 2.88329,5.073521 0.688424,3.36225 1.891732,11.503182 1.891732,12.798432 0,0.802013 -0.857407,0.961314 -2.238115,0.415826 z"
     id="path2994"
     inkscape:connector-curvature="0" /><path
     style="fill:#e6e6e6"
     d="m 33.512546,39.665297 c -0.619649,-1.495965 -0.174623,-2.307402 1.118473,-2.039362 0.908924,0.188408 0.901969,1.88938 -0.01146,2.80281 -0.46307,0.463071 -0.653318,0.331867 -1.107012,-0.763448 z"
     id="path2996"
     inkscape:connector-curvature="0" /><path
     style="fill:#e6e6e6"
     d="M 33.527665,67.309322 C 32.811624,61.939215 31.471634,54.085215 30.987102,52.418486 30.487338,50.699359 30.484559,50.704794 32.619596,49.225213 l 1.688308,-1.169998 1.720078,1.382293 c 0.946043,0.760261 1.720079,1.641002 1.720079,1.957202 0,0.649158 -2.46219,17.19667 -2.777835,18.668849 -0.410668,1.915372 -0.959693,0.867135 -1.442561,-2.754237 z"
     id="path2998"
     inkscape:connector-curvature="0" /><path
     style="fill:#e6e6e6"
     d="m 43.423066,47.041615 c 0.141459,-0.368636 0.257198,-0.77334 0.257198,-0.899341 0,-0.126 0.295043,0.01577 0.655651,0.31505 0.523684,0.43462 0.545006,0.614327 0.105932,0.892852 -0.868287,0.550795 -1.298541,0.420482 -1.018781,-0.308561 z"
     id="path3000"
     inkscape:connector-curvature="0" /><path
     style="fill:#cccccc"
     d="m 23.356686,47.094833 c -0.502942,-0.606009 -0.285057,-1.501613 0.365316,-1.501613 0.181889,0 0.547904,0.476695 0.813367,1.059322 0.385671,0.846457 0.367191,1.059322 -0.09197,1.059322 -0.316044,0 -0.805066,-0.277664 -1.086716,-0.617031 z"
     id="path3002"
     inkscape:connector-curvature="0" /><path
     style="fill:#cccccc"
     d="M 26.315926,69.330576 C 25.854523,68.869174 24.61218,66.769678 23.555163,64.665034 21.634154,60.840076 20.949074,60.022869 14.671302,54.067797 11.024844,50.60878 8.8953691,47.356614 7.3721715,42.920459 6.2929059,39.777209 6.181128,38.90855 6.1894034,33.728814 c 0.00834,-5.2213 0.113023,-5.997584 1.199928,-8.898306 0.6549338,-1.747881 1.2069653,-3.416313 1.2267366,-3.707627 0.019771,-0.291313 0.1899495,-0.529661 0.3781737,-0.529661 0.1882243,0 0.6176269,-0.524364 0.9542277,-1.165254 0.8944386,-1.703015 4.2179436,-5.462119 6.4867776,-7.336974 2.287864,-1.890581 5.814058,-3.8291564 8.756992,-4.81428 2.640359,-0.8838392 9.807769,-1.8746573 10.55123,-1.4585952 0.312596,0.1749372 1.653553,0.3770448 2.979906,0.4491279 1.326353,0.072083 2.412218,0.2392468 2.413034,0.3714747 8.05e-4,0.1322278 1.011667,0.5588468 2.246336,0.9480421 7.329723,2.310491 14.278926,9.4180985 17.11507,17.5052005 1.044932,2.979566 1.172475,3.93504 1.181174,8.848716 0.0083,4.696376 -0.136924,5.933216 -0.985131,8.389507 -1.888361,5.468438 -4.292674,8.988976 -9.124187,13.360175 -3.706119,3.35303 -4.928732,4.905966 -7.15211,9.084479 -3.035969,5.705648 -4.836925,7.018864 -4.347487,3.170076 0.907508,-7.136351 2.04184,-14.169322 2.390378,-14.820568 0.221194,-0.413305 0.798526,-0.751466 1.28296,-0.751466 1.369107,0 4.192874,-1.773228 4.851276,-3.046432 0.326729,-0.631826 0.594051,-1.904746 0.594051,-2.828717 0,-1.468796 -0.248538,-1.898718 -1.977402,-3.420525 -3.318591,-2.921141 -5.15536,-2.770081 -7.250655,0.596311 -0.873034,1.402652 -1.321463,1.793912 -1.663741,1.451633 -0.342278,-0.342278 -0.194992,-1.056145 0.546456,-2.648557 2.655861,-5.704008 0.0821,-9.667359 -5.862861,-9.02825 -3.00405,0.322948 -4.342645,1.690067 -4.342645,4.435183 0,1.935493 1.264259,5.591049 1.93364,5.591049 0.534519,0 0.168688,1.31154 -0.480408,1.722312 -0.926433,0.58628 -1.097076,0.496467 -1.665904,-0.876804 -0.824997,-1.99172 -3.136403,-3.803319 -4.61403,-3.616315 -1.595021,0.201862 -2.547263,0.727467 -3.859738,2.130444 -0.875586,0.935961 -1.059322,1.554547 -1.059322,3.566422 0,2.111878 0.164949,2.608818 1.246197,3.754403 0.685408,0.726191 1.387275,1.233157 1.559704,1.126589 0.172429,-0.106563 0.433275,3.4e-5 0.579658,0.236886 0.146382,0.236851 0.8746,0.433559 1.618262,0.437127 2.032474,0.0097 2.681258,0.727534 3.058121,3.383343 0.08268,0.582627 0.542989,3.442797 1.022919,6.355932 1.141103,6.926407 1.145726,8.474577 0.02531,8.474577 -0.466102,0 -1.224969,-0.377513 -1.686372,-0.838916 l -10e-7,0 z"
     id="path3004"
     inkscape:connector-curvature="0" /><path
     style="fill:#cccccc"
     d="m 33.710461,39.936319 c -0.663754,-0.741811 -0.240506,-1.970217 0.678839,-1.970217 0.516155,0 0.816388,0.292578 0.816388,0.795574 0,1.08457 -0.925359,1.811527 -1.495227,1.174643 z"
     id="path3006"
     inkscape:connector-curvature="0" /><path
     style="fill:#cccccc"
     d="m 34.216689,69.883628 c -0.41396,-1.462555 -0.867265,-3.739936 -0.799763,-4.017977 0.06381,-0.262841 -1.688944,-10.907013 -2.265308,-13.756804 -0.233804,-1.156031 -0.08313,-1.464096 1.191683,-2.436441 1.806601,-1.377962 2.057542,-1.37906 3.677334,-0.01609 0.88247,0.742549 1.303697,1.479183 1.303697,2.279879 0,1.36749 -2.495335,18.327507 -2.731244,18.563416 -0.08661,0.08661 -0.255993,-0.190577 -0.376399,-0.615978 z"
     id="path3008"
     inkscape:connector-curvature="0" /><path
     style="fill:#cccccc"
     d=""
     id="path3010"
     inkscape:connector-curvature="0" /><path
     style="fill:#cccccc"
     d=""
     id="path3012"
     inkscape:connector-curvature="0" /></svg>