<svg xmlns="http://www.w3.org/2000/svg" xmlns:xlink="http://www.w3.org/1999/xlink" version="1.1" id="Layer_1" x="0px" y="0px" width="100px" height="100px" viewBox="0 0 100 100" enable-background="new 0 0 100 100" xml:space="preserve">
<g>
	<path d="M89.745,41.171c-1.562-1.562-4.095-1.562-5.657,0l-4.902,4.903c-0.782-6.35-3.627-12.396-8.252-17.021   c-11.307-11.307-29.705-11.307-41.012,0c-1.562,1.562-1.562,4.095,0,5.657c1.562,1.562,4.095,1.562,5.657,0   c8.188-8.188,21.511-8.188,29.699,0c3.256,3.256,5.285,7.354,5.934,11.719l-4.895-4.894c-1.562-1.562-4.094-1.562-5.656,0   c-1.562,1.562-1.562,4.095,0,5.657l10.858,10.858c0.261,0.341,0.571,0.641,0.933,0.885c0.743,0.628,1.65,0.96,2.568,0.96   c1.024,0,2.048-0.391,2.829-1.172l11.896-11.896C91.307,45.266,91.307,42.734,89.745,41.171z"/>
	<path d="M65.277,64.41c-2.492,2.492-5.586,4.328-8.943,5.309c-7.376,2.152-15.329,0.118-20.756-5.309   c-3.26-3.261-5.3-7.372-5.938-11.785l4.959,4.96c1.562,1.562,4.095,1.562,5.657,0c1.562-1.562,1.562-4.095,0-5.656L28.725,40.397   c-0.75-0.75-1.768-1.172-2.829-1.172c-1.061,0-2.078,0.421-2.828,1.171L11.171,52.293c-1.562,1.562-1.562,4.095,0,5.656   c0.781,0.781,1.805,1.172,2.829,1.172c1.023,0,2.047-0.391,2.829-1.172l4.814-4.813c0.769,6.34,3.614,12.267,8.279,16.931   c5.518,5.519,12.927,8.496,20.515,8.496c2.715,0,5.455-0.382,8.137-1.164c4.646-1.356,8.92-3.892,12.359-7.332   c1.562-1.562,1.562-4.095,0-5.656C69.371,62.848,66.84,62.848,65.277,64.41z"/>
</g>
</svg>