<?xml version="1.0" encoding="UTF-8" standalone="no"?>
<svg
   xmlns:dc="http://purl.org/dc/elements/1.1/"
   xmlns:cc="http://creativecommons.org/ns#"
   xmlns:rdf="http://www.w3.org/1999/02/22-rdf-syntax-ns#"
   xmlns:svg="http://www.w3.org/2000/svg"
   xmlns="http://www.w3.org/2000/svg"
   xmlns:sodipodi="http://sodipodi.sourceforge.net/DTD/sodipodi-0.dtd"
   xmlns:inkscape="http://www.inkscape.org/namespaces/inkscape"
   version="1.1"
   id="Layer_1"
   x="0px"
   y="0px"
   width="100px"
   height="100px"
   viewBox="0 0 100 100"
   enable-background="new 0 0 100 100"
   xml:space="preserve"
   inkscape:version="0.48.5 r10040"
   sodipodi:docname="monitor-on.svg"><metadata
     id="metadata11"><rdf:RDF><cc:Work
         rdf:about=""><dc:format>image/svg+xml</dc:format><dc:type
           rdf:resource="http://purl.org/dc/dcmitype/StillImage" /><dc:title></dc:title></cc:Work></rdf:RDF></metadata><defs
     id="defs9" /><sodipodi:namedview
     pagecolor="#ffffff"
     bordercolor="#666666"
     borderopacity="1"
     objecttolerance="10"
     gridtolerance="10"
     guidetolerance="10"
     inkscape:pageopacity="0"
     inkscape:pageshadow="2"
     inkscape:window-width="973"
     inkscape:window-height="768"
     id="namedview7"
     showgrid="false"
     inkscape:zoom="2.36"
     inkscape:cx="50"
     inkscape:cy="50"
     inkscape:window-x="0"
     inkscape:window-y="0"
     inkscape:window-maximized="0"
     inkscape:current-layer="Layer_1" /><path
     d="M99,15.269C99,11.807,96.193,9,92.731,9H7.269C3.807,9,1,11.807,1,15.269v51.463C1,70.193,3.807,73,7.269,73h85.463  C96.193,73,99,70.193,99,66.731V15.269z M94,57.728C94,58.982,92.982,60,91.727,60H8.273C7.018,60,6,58.982,6,57.728V16.272  C6,15.018,7.018,14,8.273,14h83.453C92.982,14,94,15.018,94,16.272V57.728z M52.85,66.508c0,1.508-1.222,2.73-2.729,2.73  c-1.508,0-2.73-1.223-2.73-2.73s1.222-2.729,2.73-2.729C51.628,63.778,52.85,65,52.85,66.508z"
     id="path3" /><path
     d="M63.4,89.811c-0.859-0.611-1.596-1.147-2.225-2.405C60.546,86.147,59.736,75,59.736,75h-9.062h-0.268h-0.018h-0.268h-9.063  c0,0-0.809,11.147-1.438,12.405c-0.628,1.258-1.366,1.749-2.224,2.36c-0.49,0.348-0.17,0.895,0,1.354  C37.533,91.492,43.594,92,50.389,92c0.003,0,0.006,0,0.009,0s0.006,0,0.009,0c6.795,0,12.855-0.485,12.994-0.858  C63.568,90.681,63.889,90.158,63.4,89.811z"
     id="path5" /><path
     style="fill:#ff0000"
     d="M 7.4174527,59.48697 C 6.8219617,59.247136 6.3958044,58.609047 6.2326639,57.712983 6.0925328,56.943301 6.0343401,47.097876 6.1033468,35.834264 6.224077,16.12809 6.2598645,15.332271 7.0513261,14.753755 7.7485133,14.244148 14.307801,14.152542 50.100059,14.152542 c 40.369945,0 42.257051,0.03407 42.927488,0.77489 0.633093,0.69956 0.701267,2.859849 0.701267,22.221736 l 0,21.446845 -0.941742,0.659623 c -0.837521,0.586622 -5.56189,0.656648 -42.690678,0.632758 C 26.973045,59.873521 7.9325515,59.694432 7.4174527,59.48697 l 0,0 z"
     id="path2988"
     inkscape:connector-curvature="0" /></svg>