<svg xmlns="http://www.w3.org/2000/svg" xmlns:xlink="http://www.w3.org/1999/xlink" version="1.1" id="Layer_1" x="0px" y="0px" width="100px" height="100px" viewBox="0 0 100 100" enable-background="new 0 0 100 100" xml:space="preserve">
<path fill="#000000" d="M10.322,43.639c0,16.808,10.451,31.173,25.21,36.957V59.814c0-7.744,6.49-14.045,14.468-14.045  c7.978,0,14.468,6.301,14.468,14.045v20.781c14.758-5.783,25.21-20.148,25.21-36.957H10.322z"/>
<path fill="#000000" d="M93.6,39.06c-0.351,1.129-1.604,2.053-2.786,2.053H9.186c-1.183,0-2.437-0.924-2.786-2.053L0.092,18.735  c-0.351-1.129,0.33-2.053,1.512-2.053h96.792c1.182,0,1.862,0.924,1.512,2.053L93.6,39.06z"/>
<path fill="#000000" d="M36.511,80.963c-0.327-0.117-0.652-0.238-0.975-0.365C35.859,80.725,36.184,80.846,36.511,80.963z"/>
<path fill="#000000" d="M36.542,80.975L36.542,80.975c-0.011-0.004-0.021-0.008-0.031-0.012  C36.521,80.967,36.532,80.971,36.542,80.975z"/>
<path fill="#000000" d="M50,46.78c-7.42,0-13.457,5.847-13.457,13.035v21.16c4.202,1.514,8.732,2.344,13.457,2.344  c4.724,0,9.255-0.83,13.458-2.344v-21.16C63.457,52.627,57.42,46.78,50,46.78z M50,69.562c-5.506,0-9.985-4.373-9.985-9.748  c0-5.377,4.479-9.75,9.985-9.75c5.505,0,9.985,4.373,9.985,9.75C59.984,65.189,55.505,69.562,50,69.562z"/>
<path fill="#000000" d="M63.488,80.963c0.326-0.117,0.651-0.238,0.974-0.365C64.14,80.725,63.814,80.846,63.488,80.963z"/>
<path fill="#000000" d="M63.488,80.963c-0.011,0.004-0.021,0.008-0.031,0.012l0,0C63.468,80.971,63.478,80.967,63.488,80.963z"/>
<path fill="#000000" d="M50,52.172c-4.312,0-7.82,3.428-7.82,7.643s3.508,7.643,7.82,7.643c4.312,0,7.82-3.428,7.82-7.643  S54.312,52.172,50,52.172z M50,66.445c-3.755,0-6.81-2.975-6.81-6.631c0-3.658,3.055-6.633,6.81-6.633  c3.754,0,6.809,2.975,6.809,6.633C56.809,63.471,53.754,66.445,50,66.445z"/>
<path fill="#000000" d="M50,55.605c-2.382,0-4.313,1.885-4.313,4.209s1.932,4.209,4.313,4.209c2.382,0,4.314-1.885,4.314-4.209  S52.382,55.605,50,55.605z M52.646,61.668c-0.063,0.127-0.009-1.463-0.801-2.549C50.9,57.82,49.211,57.35,50,56.953  C52.057,55.918,54.147,58.662,52.646,61.668z"/>
</svg>