<?xml version="1.0" encoding="UTF-8" standalone="no"?>
<svg
   xmlns:dc="http://purl.org/dc/elements/1.1/"
   xmlns:cc="http://creativecommons.org/ns#"
   xmlns:rdf="http://www.w3.org/1999/02/22-rdf-syntax-ns#"
   xmlns:svg="http://www.w3.org/2000/svg"
   xmlns="http://www.w3.org/2000/svg"
   xmlns:sodipodi="http://sodipodi.sourceforge.net/DTD/sodipodi-0.dtd"
   xmlns:inkscape="http://www.inkscape.org/namespaces/inkscape"
   version="1.1"
   id="Layer_1"
   x="0px"
   y="0px"
   width="100px"
   height="100px"
   viewBox="0 0 100 100"
   enable-background="new 0 0 100 100"
   xml:space="preserve"
   inkscape:version="0.48.5 r10040"
   sodipodi:docname="thermostat.svg"><metadata
     id="metadata11"><rdf:RDF><cc:Work
         rdf:about=""><dc:format>image/svg+xml</dc:format><dc:type
           rdf:resource="http://purl.org/dc/dcmitype/StillImage" /></cc:Work></rdf:RDF></metadata><defs
     id="defs9" /><sodipodi:namedview
     pagecolor="#ffffff"
     bordercolor="#666666"
     borderopacity="1"
     objecttolerance="10"
     gridtolerance="10"
     guidetolerance="10"
     inkscape:pageopacity="0"
     inkscape:pageshadow="2"
     inkscape:window-width="927"
     inkscape:window-height="693"
     id="namedview7"
     showgrid="false"
     inkscape:zoom="2.36"
     inkscape:cx="50"
     inkscape:cy="50"
     inkscape:window-x="0"
     inkscape:window-y="0"
     inkscape:window-maximized="0"
     inkscape:current-layer="Layer_1" /><path
     d="M49.996,3.647c3.024,0,5.473,2.449,5.473,5.469v67.512c3.088,1.868,5.169,5.217,5.169,9.083  c0,5.881-4.76,10.643-10.638,10.643c-5.874,0-10.638-4.762-10.638-10.643c0-3.866,2.082-7.211,5.165-9.075V9.116  C44.527,6.096,46.976,3.647,49.996,3.647 M49.996,0c-5.024,0-9.116,4.09-9.116,9.116v65.646c-3.269,2.69-5.165,6.653-5.165,10.949  C35.715,93.589,42.123,100,50,100c7.881,0,14.285-6.411,14.285-14.289c0-4.3-1.896-8.259-5.164-10.953V9.116  C59.121,4.09,55.027,0,49.996,0L49.996,0z"
     id="path3" /><path
     d="M51.87,78.176V37.442c0-1.595-0.831-2.345-1.866-2.345c-1.028,0-1.863,0.75-1.863,2.345v40.734  c-3.202,0.828-5.573,3.73-5.573,7.19c0,4.115,3.332,7.447,7.436,7.447c4.107,0,7.438-3.332,7.438-7.447  C57.442,81.907,55.073,79.006,51.87,78.176z"
     id="path5"
     style="fill:#ff0000" /><path
     style="fill:#ffffff"
     d="M 46.845026,95.648898 C 45.710799,95.326284 43.156367,93.667886 42.307867,92.703267 38.549571,88.430648 39.011237,81.467169 43.280247,78.0365 l 1.635007,-1.313928 0,-34.503535 c 0,-31.179954 0.06676,-34.6165447 0.693026,-35.6767347 1.984248,-3.3590632 6.799192,-3.3590632 8.78344,0 0.626236,1.0601332 0.693026,4.4911607 0.693026,35.6010727 l 0,34.427871 1.642805,1.406182 c 3.409116,2.918076 4.565348,8.320466 2.595938,12.129292 -2.013072,3.893267 -4.467919,5.492971 -8.684808,5.659458 -1.633054,0.06448 -3.340199,0.0117 -3.793655,-0.11728 l 0,0 z m 6.540799,-3.468928 c 2.205041,-1.182576 3.878719,-3.493881 4.127355,-5.699771 0.377493,-3.34911 -1.415633,-6.799305 -4.11477,-7.917322 l -1.279766,-0.530097 0,-20.892903 c 0,-18.428577 -0.07854,-20.971442 -0.66586,-21.558763 -0.850435,-0.850436 -2.055133,-0.850436 -2.905568,0 -0.587322,0.587321 -0.66586,3.130186 -0.66586,21.558763 l 0,20.892903 -1.229332,0.509207 c -2.376622,0.984428 -4.288705,4.069547 -4.269837,6.889318 0.01101,1.644856 1.237166,4.488733 2.368236,5.492746 2.404161,2.134089 6.017954,2.659674 8.635402,1.255919 z"
     id="path2988"
     inkscape:connector-curvature="0" /></svg>