<svg xmlns:dc="http://purl.org/dc/elements/1.1/" xmlns:cc="http://creativecommons.org/ns#" xmlns:rdf="http://www.w3.org/1999/02/22-rdf-syntax-ns#" xmlns:svg="http://www.w3.org/2000/svg" xmlns="http://www.w3.org/2000/svg" xmlns:sodipodi="http://sodipodi.sourceforge.net/DTD/sodipodi-0.dtd" xmlns:inkscape="http://www.inkscape.org/namespaces/inkscape" width="100" height="100" id="svg3134" version="1.1" inkscape:version="0.48.3.1 r9886" sodipodi:docname="thermo.svg">
  <defs id="defs3136"/>
  <sodipodi:namedview id="base" pagecolor="#ffffff" bordercolor="#666666" borderopacity="1.0" inkscape:pageopacity="0.0" inkscape:pageshadow="2" inkscape:zoom="9.484375" inkscape:cx="46.474108" inkscape:cy="74.139757" inkscape:document-units="px" inkscape:current-layer="g3099" showgrid="false" inkscape:window-width="1317" inkscape:window-height="744" inkscape:window-x="49" inkscape:window-y="24" inkscape:window-maximized="1"/>
  <metadata id="metadata3139">
    <rdf:RDF>
      <cc:Work rdf:about="">
        <dc:format>image/svg+xml</dc:format>
        <dc:type rdf:resource="http://purl.org/dc/dcmitype/StillImage"/>
        <dc:title/>
      </cc:Work>
    </rdf:RDF>
  </metadata>
  <g inkscape:label="Layer 1" inkscape:groupmode="layer" id="layer1" transform="translate(0,-952.36218)">
    <g id="g3858" transform="matrix(0.96923914,0,0,0.96918457,7.3370383,-47.222822)"/>
    <g id="g3128" transform="matrix(1.0652977,0,0,1.0652977,-672.4377,235.19574)">
      <g id="g3099" transform="matrix(0.94926169,0,0,0.94926169,603.11292,-84.630341)">
        <path style="font-size:medium;font-style:normal;font-variant:normal;font-weight:normal;font-stretch:normal;text-indent:0;text-align:start;text-decoration:none;line-height:normal;letter-spacing:normal;word-spacing:normal;text-transform:none;direction:ltr;block-progression:tb;writing-mode:lr-tb;text-anchor:start;baseline-shift:baseline;color:#000000;fill:#000000;fill-opacity:1;stroke:none;stroke-width:0.80422217;marker:none;visibility:visible;display:inline;overflow:visible;enable-background:accumulate;font-family:Sans;-inkscape-font-specification:Sans" d="m 78.15766,798.54176 c -4.858852,0 -8.745397,3.86133 -8.745397,8.71449 l 0,15.88387 0,0.49443 5.129809,0 0.957976,0 1.050684,0 0.123609,0 0,0.58715 -0.123609,0 -1.050684,0 -0.957976,0 -5.129809,0 0,0.49444 0,5.93327 0,0.52535 0.525342,0 4.511759,0 0.09271,0 0.957976,0 5.315223,0 0.957977,0 0.309024,0 1.823246,0 0,0.55624 -1.823246,0 -0.309024,0 -0.957977,0 -5.315223,0 -0.957976,0 -0.09271,0 -4.511759,0 -0.525342,0 0,0.49444 0,6.02598 0,0.49444 5.129809,0 0.957976,0 1.174293,0 0,0.58715 -1.174293,0 -0.957976,0 -5.129809,0 0,0.43263 0,6.08779 0,0.46353 0.525342,0 4.604467,0 0.463536,0 0.49444,0 5.315223,0 1.297904,0 1.792343,0 0,0.55625 -1.792343,0 -1.297904,0 -5.315223,0 -0.49444,0 -0.463536,0 -4.604467,0 -0.525342,0 0,0.49444 0,5.99507 0,0.49444 0.525342,0 5.068003,0 0.49444,0 0,-0.49444 0,-5.50063 5.315223,0 0,13.10264 0,0.46354 0.49444,0 2.595807,0 0,0.55624 -2.595807,0 -0.49444,0 0,0.49444 0,12.20647 0,0.33993 0.278122,0.0927 c 2.852512,1.1536 4.882589,3.93011 4.882589,7.20027 0,4.30325 -3.48328,7.75652 -7.78742,7.75652 -4.304123,0 -7.78742,-3.45499 -7.78742,-7.75652 0,-3.244 1.970672,-6.03095 4.789881,-7.20027 l 0.309025,-0.0927 0,-0.30903 0,-12.23737 0,-0.49444 -0.49444,0 -5.068003,0 -0.525342,0 0,0.49444 0,6.98396 0,0.15451 -0.12361,0.0927 c -3.748365,2.73922 -6.118687,7.21116 -6.118687,12.20647 0,8.31811 6.66225,15.01859 14.987694,15.01859 8.325571,0 15.080401,-6.70118 15.080401,-15.01859 0,-4.97611 -2.394979,-9.43395 -6.118687,-12.17557 l -0.0309,-0.0309 -0.09271,-0.0927 0,-0.15451 0,-62.20666 c 0,-4.85564 -3.978929,-8.71449 -8.838104,-8.71449 z m 0,0.98887 c 4.341995,0 7.849225,3.39229 7.849225,7.72562 l 0,62.20666 0,0.37083 0,0.24722 0.185415,0.12361 0.309024,0.27812 0.0309,0 c 3.505996,2.5621 5.716955,6.74834 5.716955,11.43391 0,7.79715 -6.291735,14.06062 -14.091522,14.06062 -7.799878,0 -14.060621,-6.25876 -14.060621,-14.06062 0,-4.68557 2.303683,-8.87181 5.809663,-11.43391 l 0.339927,-0.21632 0.185415,-0.15451 0,-0.27812 0,-0.37083 0,-6.48952 4.110028,0 0,11.49571 c -2.99571,1.38967 -5.129809,4.33758 -5.129809,7.84923 0,4.8251 3.943481,8.7763 8.776299,8.7763 4.832832,0 8.745397,-3.95291 8.745397,-8.7763 0,-3.53629 -2.129571,-6.50489 -5.160711,-7.88013 l 0,-11.46481 2.626709,0 0.494439,0 0,-0.49444 0,-1.51422 0,-0.52534 -0.494439,0 -2.626709,0 0,-12.5464 2.626709,0 0.494439,0 0,-0.52534 0,-1.51422 0,-0.49444 -0.494439,0 -2.286782,0 -0.339927,0 0,-12.63911 2.626709,0 0.494439,0 0,-0.49444 0,-1.57603 0,-0.46353 -0.494439,0 -2.626709,0 0,-24.41295 0,-0.49444 -0.463537,0 -6.304103,0 -0.463536,0 0,0.49444 0,16.90365 -4.110028,0 0,-15.42033 c 0,-4.34491 3.383299,-7.72562 7.725616,-7.72562 z m -2.657612,6.73674 5.315223,0 0,23.91851 -5.315223,0 0,-5.0062 1.63783,0 0.49444,0 0,-0.46354 0,-1.57602 0,-0.46354 -0.49444,0 -1.63783,0 0,-16.40921 z m -5.068004,18.91231 4.110028,0 0,5.0062 -4.110028,0 0,-5.0062 z m 0,7.5402 4.110028,0 0,5.0989 -4.110028,0 0,-5.0989 z m 5.068004,0 5.315223,0 0,12.63911 -5.315223,0 0,-5.09891 1.63783,0 0.49444,0 0,-0.49444 0,-1.51422 0,-0.43264 -0.49444,0 -1.63783,0 0,-5.0989 z m -5.068004,7.5402 4.110028,0 0,5.09891 -4.110028,0 0,-5.09891 z m 0,7.63291 4.110028,0 0,4.97529 -4.110028,0 0,-4.97529 z m 6.489517,5.22251 0,23.70219 c -2.674059,0.59013 -4.697174,2.96963 -4.697174,5.80966 0,3.28343 2.698174,5.96418 5.995078,5.96418 3.296906,0 5.964175,-2.68075 5.964175,-5.96418 0,-2.84889 -2.010585,-5.22888 -4.697175,-5.80966 l 0,-23.70219 -2.564904,0 z m -7.509298,1.32881 0,0.49444 0,6.02598 0,0.46354 0.525342,0 5.068003,0 0.49444,0 0,-0.46354 0,-6.02598 0,-0.49444 -0.49444,0 -5.068003,0 -0.525342,0 z m 1.019781,0.95798 4.110028,0 0,5.0371 -4.110028,0 0,-5.0371 z m 7.787421,22.09526 c 2.849013,0 5.129808,2.29243 5.129808,5.1298 0,2.83737 -2.280795,5.16072 -5.129808,5.16072 -2.849011,0 -5.160712,-2.32335 -5.160712,-5.16072 0,-2.83737 2.311701,-5.1298 5.160712,-5.1298 z" id="path4471" inkscape:connector-curvature="0"/>
      </g>
    </g>
  </g>
</svg>